<svg width="20" height="20" fill="none" xmlns="http://www.w3.org/2000/svg"><g clip-path="url(#clip0_3901_36281)"><g clip-path="url(#clip1_3901_36281)"><path d="M9.993 17.04h-8.15c-.61 0-1.12-.216-1.495-.707-.256-.335-.36-.723-.36-1.142v-7.32c0-1.026-.002-2.055 0-3.081.004-.75.335-1.308 1.005-1.655.253-.125.525-.175.804-.175 5.468 0 10.936-.003 16.407 0 1.042 0 1.805.773 1.808 1.814.003 3.482.003 6.967 0 10.448 0 .87-.522 1.546-1.357 1.762a2.12 2.12 0 01-.529.05c-2.712.006-5.421.006-8.133.006zM2.025 4.149c.04.047.06.075.085.097 2.202 2.19 4.401 4.385 6.613 6.569.184.181.419.34.657.431.719.273 1.367.1 1.905-.434 2.202-2.184 4.398-4.374 6.597-6.56.028-.028.047-.06.081-.1-5.315-.003-10.614-.003-15.938-.003zm10.914 6.656c-.294.3-.55.573-.816.836-1.201 1.185-2.934 1.213-4.173.065-.26-.24-.504-.497-.757-.747-.04-.041-.081-.075-.144-.135-1.661 1.69-3.31 3.372-4.93 5.024h15.77c-1.627-1.655-3.273-3.335-4.95-5.043zM1.215 4.996c-.013.007-.022.016-.034.022v9.967c.012.009.028.015.04.025 1.652-1.683 3.304-3.363 4.918-5.012-1.62-1.648-3.272-3.325-4.924-5.002zm12.597 5.046a8343.32 8343.32 0 005.008 4.977V5.012l-.037-.019-4.97 5.05z" fill="#0095FF"/></g></g><defs><clipPath id="clip0_3901_36281"><path fill="#fff" d="M0 0h20v20H0z"/></clipPath><clipPath id="clip1_3901_36281"><path fill="#fff" transform="translate(-.012 2.96)" d="M0 0h20.024v14.08H0z"/></clipPath></defs></svg>