<svg width="115" height="132" fill="none" xmlns="http://www.w3.org/2000/svg"><path d="M113.638 62.744l.433-.25a7.076 7.076 0 010 7.011l-.433-.249a6.446 6.446 0 01-2.388 2.373l-2.094 1.209.25.433-4.187 2.418-.25-.433-4.188 2.417.25.433-4.187 2.418-.25-.433-4.188 2.418.25.433-4.187 2.417-.25-.433-4.188 2.418.25.433-4.187 2.418-.25-.433-4.188 2.417.25.433-4.187 2.418-.25-.433-4.188 2.418.25.433-4.187 2.417-.25-.433-4.188 2.418.25.433-4.187 2.418-.25-.434-4.188 2.418.25.433-4.187 2.418-.25-.433-4.188 2.417.25.433-4.187 2.418-.25-.433-4.188 2.418.25.433-4.187 2.417-.25-.433-4.188 2.418.25.433-4.187 2.418-.25-.433-4.188 2.417.25.433-4.187 2.418-.25-.433-2.094 1.209a6.443 6.443 0 01-3.25.881v.5a7.079 7.079 0 01-6.071-3.505l.432-.251A6.44 6.44 0 011 124.024v-2.418H.5v-4.835H1v-4.836H.5V107.1H1v-4.835H.5V97.43H1v-4.836H.5V87.76H1v-4.835H.5v-4.836H1v-4.835H.5v-4.835H1v-4.836H.5v-4.835H1v-4.835H.5v-4.836H1v-4.835H.5v-4.835H1V34.57H.5v-4.836H1V24.9H.5v-4.835H1v-4.836H.5v-4.835H1V7.976c0-1.217.319-2.318.861-3.254l-.432-.25A7.079 7.079 0 017.5.965v.5a6.443 6.443 0 013.25.881l2.094 1.209.25-.433L17.28 5.54l-.25.433 4.19 2.417.25-.433 4.187 2.418-.25.433 4.188 2.418.25-.433 4.187 2.417-.25.433 4.188 2.418.25-.433 4.187 2.418-.25.433 4.188 2.417.25-.433 4.187 2.418-.25.433 4.188 2.418.25-.434 4.187 2.418-.25.433 4.188 2.418.25-.433 4.187 2.417-.25.434 4.188 2.417.25-.433 4.187 2.418-.25.433 4.188 2.417.25-.433 4.187 2.418-.25.433 4.188 2.418.25-.433 4.187 2.417-.25.433 4.188 2.418.25-.433 4.187 2.418-.25.433 4.188 2.417.25-.433 4.187 2.418-.25.433 2.094 1.209a6.445 6.445 0 012.388 2.373z" stroke="#C8C8C8" stroke-dasharray="5 5"/><path d="M106 62.036c2.667 1.54 2.667 5.388 0 6.928l-95.25 54.993c-2.667 1.539-6-.385-6-3.464V10.507c0-3.079 3.333-5.003 6-3.464L106 62.036z" fill="#F7F7F7"/><g clip-path="url(#clip0_3886_39109)" fill="#0095FF"><path d="M40.571 84.245c-.57 1.367-1.093 2.64-1.624 3.904-.148.36-.289.727-.453 1.078-.663 1.453-2.28 2.155-3.756 1.562-3.037-1.226-6.06-2.499-9.081-3.756-.461-.188-.633-.617-.446-1.015.18-.39.586-.516 1.07-.313 2.882 1.195 5.771 2.382 8.645 3.592.663.282 1.288.352 1.85-.171.203-.188.36-.453.469-.703 3.334-8.02 6.653-16.047 9.98-24.067.218-.523.25-1.015.007-1.538a3299.273 3299.273 0 01-4.248-9.168c-.265-.57-.656-1.03-1.21-1.327a1.236 1.236 0 00-.18-.078c-.023-.008-.047 0-.14.015-.07.57-.148 1.164-.195 1.75-.008.093.124.21.21.288.844.71 1.148 1.828.766 2.82-.406 1.03-1.359 1.631-2.491 1.569-1.039-.055-1.93-.797-2.21-1.85-.36-1.313.5-2.742 1.85-3.007.344-.07.446-.203.461-.523.024-.407.102-.813.164-1.32-.382.14-.671.242-.953.351-2.951 1.125-5.903 2.257-8.855 3.381-.538.203-.882.555-1.1 1.078-3.32 8.004-6.646 16.008-9.965 24.02-.46 1.117-.14 1.874.984 2.335.851.351 1.71.703 2.561 1.062.508.219.695.593.524 1.015-.164.406-.586.539-1.094.336-.913-.375-1.827-.75-2.74-1.132-1.656-.703-2.335-2.359-1.648-4.03 2.366-5.716 4.74-11.432 7.106-17.156.968-2.327 1.936-4.654 2.89-6.997.39-.952 1.038-1.585 1.998-1.944 2.99-1.132 5.974-2.28 8.965-3.42.359-.14.741-.266 1.124-.32.328-.047.422-.188.477-.485.288-1.6.57-3.201.905-4.786.266-1.234.781-2.374 1.68-3.296.843-.867 1.842-1.273 3.045-.82 1.038.39 1.585 1.187 1.71 2.273.133 1.124-.133 2.194-.648 3.17-.875 1.663-1.835 3.295-2.757 4.935-.062.11-.133.219-.219.36 1.063.335 2.085.663 3.116.983 1.031.328 2.054.656 3.085.977.812.257 1.429.75 1.804 1.514a199.734 199.734 0 011.936 4.131c.203.438.055.844-.336 1.023-.39.172-.788.016-.991-.414-.625-1.32-1.218-2.647-1.874-3.943-.164-.32-.469-.687-.79-.804-1.717-.602-3.45-1.133-5.293-1.726.085.218.132.36.187.484 1.218 2.632 2.428 5.271 3.662 7.895.46.984.477 1.929.063 2.936-2.374 5.7-4.74 11.409-7.09 17.117a.779.779 0 00.015.578c.851 1.858 1.718 3.701 2.585 5.552.46.984 1.249 1.28 2.248.82a8545.67 8545.67 0 0014.767-6.919c.937-.437 1.226-1.265.78-2.202-2.514-5.373-5.028-10.737-7.542-16.11-.079-.164-.164-.328-.227-.5-.164-.421-.023-.827.352-.991.374-.172.78-.023.976.383.421.874.835 1.764 1.25 2.647 2.17 4.638 4.349 9.277 6.512 13.923.82 1.757.21 3.389-1.547 4.217-4.911 2.303-9.823 4.6-14.727 6.903-1.663.78-3.366.164-4.147-1.507-.655-1.39-1.304-2.78-1.952-4.17-.078-.125-.14-.25-.25-.469zm2.18-33.11c1.217-1.89 2.42-3.763 3.177-5.864.196-.53.235-1.148.219-1.718-.016-.632-.539-1.054-1.14-1.07-.437-.007-.82.18-1.046.516-.414.609-.914 1.218-1.094 1.905-.468 1.835-.796 3.71-1.163 5.568-.016.078.062.226.14.265.274.14.563.25.906.399zm-2.796 4.093a.994.994 0 00-1.023.96.988.988 0 00.991 1.03.988.988 0 001-.983.982.982 0 00-.968-1.008z"/><path d="M25.484 71.645c.078-4.209 3.225-7.7 7.419-8.152 4.1-.446 7.918 2.295 8.832 6.348.124.539.164 1.11.203 1.663.039.508-.25.844-.695.86-.453.015-.734-.266-.766-.79-.148-2.826-1.444-4.903-4.037-6.082-3.514-1.593-7.637.18-9.003 3.818-1.336 3.584.624 7.598 4.279 8.738 3.092.969 6.473-.421 7.98-3.287.032-.055.063-.117.094-.172.258-.453.64-.61 1.03-.406.391.203.508.617.274 1.077-1.194 2.343-3.084 3.85-5.653 4.39-4.327.905-8.434-1.633-9.605-5.897-.188-.687-.242-1.405-.352-2.108z"/><path d="M35.418 68.84c.164.07.297.117.43.172.648.273.976.898.835 1.585-.078.367-.344.609-.703.617-.351.008-.671-.211-.726-.578-.04-.258-.156-.352-.375-.406-.336-.094-.671-.211-1.007-.305-.313-.086-.578-.015-.703.313-.11.296.039.57.39.695.258.093.524.156.781.242 1.047.328 1.617 1.218 1.468 2.272-.14.953-.968 1.64-2.022 1.64-.234 0-.328.078-.375.281-.047.18-.094.352-.164.516-.164.367-.547.538-.898.421-.367-.125-.562-.476-.476-.867.054-.242.21-.507.148-.702-.055-.157-.383-.211-.578-.328a1.37 1.37 0 01-.617-1.515c.086-.36.32-.563.687-.578.367-.008.656.172.711.53.047.305.21.407.469.47.312.078.624.187.937.273.312.086.578.015.702-.313.11-.296-.039-.57-.39-.687-.281-.101-.57-.172-.859-.265-.976-.328-1.538-1.226-1.39-2.21.148-.984.953-1.687 1.983-1.68.258 0 .375-.077.43-.32a2.22 2.22 0 01.156-.484.725.725 0 01.867-.429c.351.102.57.437.523.812-.016.14-.07.273-.11.414-.046.125-.077.25-.124.414zm13.658 2.776c0-.469.203-.703.547-.812.32-.102.663.055.835.406.274.547.523 1.101.789 1.656 1.265 2.694 2.538 5.38 3.795 8.074.086.18.172.398.164.593-.016.344-.234.57-.578.648-.336.079-.663-.109-.843-.476-.484-1.023-.968-2.046-1.445-3.069-1.03-2.186-2.054-4.373-3.084-6.56-.086-.171-.14-.358-.18-.46zm9.401 7.997c.008.438-.218.734-.539.82-.328.086-.671-.062-.843-.406-.281-.57-.547-1.148-.82-1.726-1.242-2.647-2.491-5.286-3.733-7.933-.304-.648-.218-1.062.242-1.265.446-.196.79.007 1.086.64 1.484 3.147 2.967 6.302 4.45 9.449.071.156.126.335.157.421z"/></g><defs><clipPath id="clip0_3886_39109"><path fill="#fff" transform="translate(17.457 41)" d="M0 0h46.088v50H0z"/></clipPath></defs></svg>