<svg width="115" height="132" fill="none" xmlns="http://www.w3.org/2000/svg"><path d="M113.638 62.744l.433-.25a7.076 7.076 0 010 7.011l-.433-.249a6.446 6.446 0 01-2.388 2.373l-2.094 1.209.25.433-4.187 2.418-.25-.433-4.188 2.417.25.433-4.187 2.418-.25-.433-4.188 2.418.25.433-4.187 2.417-.25-.433-4.188 2.418.25.433-4.187 2.418-.25-.433-4.188 2.417.25.433-4.187 2.418-.25-.433-4.188 2.418.25.433-4.187 2.417-.25-.433-4.188 2.418.25.433-4.187 2.418-.25-.434-4.188 2.418.25.433-4.187 2.418-.25-.433-4.188 2.417.25.433-4.187 2.418-.25-.433-4.188 2.418.25.433-4.187 2.417-.25-.433-4.188 2.418.25.433-4.187 2.418-.25-.433-4.188 2.417.25.433-4.187 2.418-.25-.433-2.094 1.209a6.443 6.443 0 01-3.25.881v.5a7.079 7.079 0 01-6.071-3.505l.432-.251A6.44 6.44 0 011 124.024v-2.418H.5v-4.835H1v-4.836H.5V107.1H1v-4.835H.5V97.43H1v-4.836H.5V87.76H1v-4.835H.5v-4.836H1v-4.835H.5v-4.835H1v-4.836H.5v-4.835H1v-4.835H.5v-4.836H1v-4.835H.5v-4.835H1V34.57H.5v-4.836H1V24.9H.5v-4.835H1v-4.836H.5v-4.835H1V7.976c0-1.217.319-2.318.861-3.254l-.432-.25A7.079 7.079 0 017.5.965v.5a6.443 6.443 0 013.25.881l2.094 1.209.25-.433L17.28 5.54l-.25.433 4.19 2.417.25-.433 4.187 2.418-.25.433 4.188 2.418.25-.433 4.187 2.417-.25.433 4.188 2.418.25-.433 4.187 2.418-.25.433 4.188 2.417.25-.433 4.187 2.418-.25.433 4.188 2.418.25-.434 4.187 2.418-.25.433 4.188 2.418.25-.433 4.187 2.417-.25.434 4.188 2.417.25-.433 4.187 2.418-.25.433 4.188 2.417.25-.433 4.187 2.418-.25.433 4.188 2.418.25-.433 4.187 2.417-.25.433 4.188 2.418.25-.433 4.187 2.418-.25.433 4.188 2.417.25-.433 4.187 2.418-.25.433 2.094 1.209a6.445 6.445 0 012.388 2.373z" stroke="#C8C8C8" stroke-dasharray="5 5"/><path d="M106 62.036c2.667 1.54 2.667 5.388 0 6.928l-95.25 54.993c-2.667 1.539-6-.385-6-3.464V10.507c0-3.079 3.333-5.003 6-3.464L106 62.036z" fill="#F7F7F7"/><g clip-path="url(#clip0_3886_39166)"><g clip-path="url(#clip1_3886_39166)" fill="#0095FF"><path d="M51.802 77.98c-4.48 3.156-4.802 3.291-9.958 4.124 0 1.125-.01 2.271.02 3.407 0 .135.25.291.407.375 1.073.593 1.645 1.78 1.395 2.937-.26 1.188-1.25 2.073-2.427 2.167a2.727 2.727 0 01-2.78-1.771c-.47-1.281.051-2.698 1.29-3.313.355-.177.428-.364.417-.708-.02-.99-.01-1.979-.01-2.969 0-.03-.02-.062-.042-.145-1.802-.125-3.572-.5-5.26-1.209-1.698-.698-3.219-1.677-4.625-2.927-.813.823-1.615 1.604-2.385 2.427-.094.094-.063.375-.01.542.437 1.396-.272 2.896-1.647 3.385-1.385.5-2.958-.187-3.468-1.573-.375-1.01-.23-1.958.5-2.77.76-.855 1.729-1.063 2.802-.76.375.103.583.04.843-.23.709-.74 1.448-1.448 2.188-2.198-2.49-2.833-3.886-6.115-4.125-9.896-.125-.01-.26-.041-.396-.041-.708 0-1.427.03-2.135-.01-.667-.043-1.136.051-1.532.75-.593 1.051-1.937 1.385-3.073.968A2.713 2.713 0 0116 65.834c.062-1.209.937-2.22 2.156-2.49 1.136-.26 2.365.281 2.896 1.344.198.406.427.5.833.49.99-.022 1.98-.011 3.031-.011.25-3.76 1.594-7.073 4.125-9.927-.822-.823-1.614-1.636-2.437-2.427-.094-.084-.344-.052-.5 0a2.702 2.702 0 01-3.48-1.854c-.416-1.49.49-3 2.022-3.334 1-.218 1.906.032 2.604.802.687.771.906 1.677.552 2.657-.115.312-.063.49.167.708.76.73 1.5 1.49 2.26 2.25 2.854-2.5 6.125-3.886 9.938-4.125 0-1.156.01-2.302-.021-3.438 0-.135-.25-.28-.417-.375-1.073-.593-1.646-1.791-1.385-2.937.27-1.198 1.25-2.073 2.427-2.167a2.726 2.726 0 012.77 1.782c.48 1.291-.052 2.697-1.291 3.312-.354.177-.427.375-.417.719.021.99.01 1.979.01 2.968 0 .032.021.063.042.146 3.73.25 7.042 1.615 9.886 4.125.812-.823 1.625-1.604 2.395-2.427.094-.093.063-.375.01-.541-.437-1.386.261-2.865 1.605-3.355 1.417-.52 2.969.136 3.49 1.51.395 1.043.24 2.032-.532 2.855-.77.813-1.729 1.094-2.802.719-.333-.115-.52-.063-.75.177-.718.75-1.468 1.479-2.24 2.24 2.532 2.812 3.876 6.104 4.126 9.895.135.01.26.042.396.042.604 0 1.218-.01 1.822 0 .782.01 1.448.062 1.948-.854.573-1.052 1.99-1.282 3.105-.813a2.732 2.732 0 011.645 2.76c-.104 1.178-1 2.157-2.187 2.407-1.125.24-2.344-.323-2.886-1.396-.177-.354-.364-.469-.75-.448-.99.031-1.979.021-2.968.021-.032 0-.063.02-.125.052-.25 3.719-1.604 7.01-4.115 9.865.834.823 1.636 1.656 2.48 2.448.083.083.343.02.51-.021 1.177-.344 2.385.052 3.052 1.02a2.74 2.74 0 01-.094 3.209 2.717 2.717 0 01-3.375.75c-1.187-.604-1.77-1.969-1.344-3.208.125-.355.073-.553-.187-.803a86.684 86.684 0 01-2.198-2.177zM26.604 66.926c.323.052.573.084.813.115 1.395.23 2.114.917 2.395 2.292.052.25.063.541.188.75.146.24.364.49.614.614.47.23.98.344 1.459.542 1.552.656 2.01 1.77 1.343 3.312-.208.49-.114.802.271 1.125.334.271.646.584.927.917.542.646.75 1.396.594 2.24-.02.114-.02.24-.031.375 2.98 1.302 6.031 1.572 9.177.854 8.906-2.052 13.698-12.136 9.635-20.334-.062-.135-.135-.333-.26-.375-.698-.26-1.396-.5-2.115-.708-.114-.031-.27.094-.406.146.052.125.073.27.167.354.427.417.864.802 1.291 1.208 1.282 1.22 1.657 2.678.98 4.313-.438 1.052-1.063 2.02-1.573 3.042-.198.395-.427.812-.5 1.24-.23 1.468-.396 2.957-.573 4.437-.125 1.02-.51 1.875-1.48 2.354-.676.333-1.385.208-1.874-.281-.448-.459-.521-.97-.188-1.344.334-.386.792-.365 1.323.052.02.02.063.01.23.042.103-.334.26-.678.312-1.032.104-.75.135-1.52.218-2.28.198-1.866.605-3.657 1.76-5.199.272-.375.46-.812.647-1.24.604-1.385.448-2.062-.667-3.104-.469-.437-.98-.854-1.364-1.343-.896-1.136-.303-2.688 1.124-2.959.376-.073.771-.01 1.167-.01-.02-.063-.02-.104-.041-.125-2.198-2.677-5-4.344-8.396-5.031a.646.646 0 00-.48.104c-.562.49-1.114.99-1.614 1.531-.156.167-.23.48-.208.708.072.782.437 1.073 1.333.99 1.469-.135 2.583.531 3.552 1.52.458.48.27 1.21-.323 1.386-.396.115-.698-.052-.98-.323-.645-.635-1.374-1.03-2.332-.895-.303.041-.625-.01-.928-.073-1.843-.365-2.666-2.896-1.437-4.334.24-.281.469-.562.698-.843-.02-.042-.042-.094-.073-.136-1.208.167-2.417.333-3.688.51.5 1.376-.02 2.24-1.052 2.907-.229.156-.447.323-.677.49-.74.551-1.145 1.26-1.24 2.187-.103 1.083-.687 1.875-1.645 2.364a4.128 4.128 0 01-2.636.375c-.677-.125-1.322-.364-2.041-.562a13.851 13.851 0 00-1.396 7.135zm6.854 11.375l.156-.093c-.156-.25-.27-.521-.468-.74-.282-.323-.625-.594-.938-.906-.666-.677-.802-1.469-.458-2.344l.125-.281c.281-.698.198-.907-.521-1.177-.49-.188-.98-.355-1.469-.51-.656-.21-1.114-.636-1.344-1.272-.145-.406-.27-.823-.364-1.24-.167-.801-.458-1.04-1.375-1.03.896 4.156 3.125 7.333 6.656 9.593zm2.386-25.583c-.073-.031-.136-.073-.209-.104-2.812 1.156-5.052 3-6.76 5.583.781.438 1.552.615 2.385.48.834-.136 1.375-.574 1.448-1.49.104-1.23.709-2.23 1.688-2.99.385-.302.791-.562 1.156-.885.146-.146.198-.396.292-.594zM25.26 82.781c.573-.01 1.031-.458 1.031-1.02 0-.563-.51-1.063-1.072-1.052-.584.01-1.032.5-1.01 1.093.02.573.468.99 1.051.98zm32.532-1c.01-.583-.459-1.072-1.032-1.062-.552 0-1.031.469-1.041 1.02-.021.574.458 1.053 1.052 1.053a1.014 1.014 0 001.02-1.01zM42.041 43.71a1.054 1.054 0 00-1.032-1.032 1.049 1.049 0 00-1.052 1.052c.01.563.459 1.021 1.031 1.021a1.034 1.034 0 001.053-1.041zm-16.771 5.5c-.584-.01-1.032.406-1.052.979-.021.604.416 1.073 1.01 1.083.573.01 1.073-.469 1.073-1.042-.01-.552-.469-1-1.031-1.02zm32.52 1.02a1.007 1.007 0 00-1.02-1.01c-.584 0-1.063.469-1.052 1.052.01.552.479 1.02 1.041 1.02.573 0 1.042-.468 1.032-1.062zM19.75 65.98a1.038 1.038 0 00-1.031-1.02c-.584 0-1.063.479-1.053 1.062.01.563.48 1.02 1.042 1.02.584 0 1.052-.468 1.042-1.062zm43.531-1.02c-.562 0-1.02.447-1.042 1.01a1.043 1.043 0 001.032 1.073c.583 0 1.062-.49 1.041-1.063 0-.562-.468-1.01-1.03-1.02zM41 87.25c-.563 0-1.021.448-1.042 1.01A1.052 1.052 0 0041 89.335c.552 0 1.02-.459 1.041-1.021A1.043 1.043 0 0041 87.25z"/><path d="M40.99 59.445h5.834c.791 0 1.073.282 1.073 1.063v10.99c0 .78-.282 1.062-1.073 1.062H35.157c-.75 0-1.042-.292-1.042-1.031V60.487c0-.75.292-1.031 1.042-1.031 1.937-.01 3.885-.01 5.833-.01zm-5.187 11.407h10.385v-9.709h-3.041c0 .896.01 1.76 0 2.625-.01.688-.313.98-.99.99-.698.01-1.385 0-2.083 0-.959 0-1.198-.24-1.209-1.198v-2.406h-3.062v9.698zm5.635-9.709h-.875v1.917h.875v-1.917z"/></g></g><defs><clipPath id="clip0_3886_39166"><path fill="#fff" transform="translate(16 41)" d="M0 0h50v50H0z"/></clipPath><clipPath id="clip1_3886_39166"><path fill="#fff" transform="translate(16 41)" d="M0 0h50v50H0z"/></clipPath></defs></svg>