<svg width="115" height="132" fill="none" xmlns="http://www.w3.org/2000/svg"><path d="M113.638 62.744l.433-.25a7.076 7.076 0 010 7.011l-.433-.249a6.446 6.446 0 01-2.388 2.373l-2.094 1.209.25.433-4.187 2.418-.25-.433-4.188 2.417.25.433-4.187 2.418-.25-.433-4.188 2.418.25.433-4.187 2.417-.25-.433-4.188 2.418.25.433-4.187 2.418-.25-.433-4.188 2.417.25.433-4.187 2.418-.25-.433-4.188 2.418.25.433-4.187 2.417-.25-.433-4.188 2.418.25.433-4.187 2.418-.25-.434-4.188 2.418.25.433-4.187 2.418-.25-.433-4.188 2.417.25.433-4.187 2.418-.25-.433-4.188 2.418.25.433-4.187 2.417-.25-.433-4.188 2.418.25.433-4.187 2.418-.25-.433-4.188 2.417.25.433-4.187 2.418-.25-.433-2.094 1.209a6.443 6.443 0 01-3.25.881v.5a7.079 7.079 0 01-6.071-3.505l.432-.251A6.44 6.44 0 011 124.024v-2.418H.5v-4.835H1v-4.836H.5V107.1H1v-4.835H.5V97.43H1v-4.836H.5V87.76H1v-4.835H.5v-4.836H1v-4.835H.5v-4.835H1v-4.836H.5v-4.835H1v-4.835H.5v-4.836H1v-4.835H.5v-4.835H1V34.57H.5v-4.836H1V24.9H.5v-4.835H1v-4.836H.5v-4.835H1V7.976c0-1.217.319-2.318.861-3.254l-.432-.25A7.079 7.079 0 017.5.965v.5a6.443 6.443 0 013.25.881l2.094 1.209.25-.433L17.28 5.54l-.25.433 4.19 2.417.25-.433 4.187 2.418-.25.433 4.188 2.418.25-.433 4.187 2.417-.25.433 4.188 2.418.25-.433 4.187 2.418-.25.433 4.188 2.417.25-.433 4.187 2.418-.25.433 4.188 2.418.25-.434 4.187 2.418-.25.433 4.188 2.418.25-.433 4.187 2.417-.25.434 4.188 2.417.25-.433 4.187 2.418-.25.433 4.188 2.417.25-.433 4.187 2.418-.25.433 4.188 2.418.25-.433 4.187 2.417-.25.433 4.188 2.418.25-.433 4.187 2.418-.25.433 4.188 2.417.25-.433 4.187 2.418-.25.433 2.094 1.209a6.445 6.445 0 012.388 2.373z" stroke="#C8C8C8" stroke-dasharray="5 5"/><path d="M106 62.036c2.667 1.54 2.667 5.388 0 6.928l-95.25 54.993c-2.667 1.539-6-.385-6-3.464V10.507c0-3.079 3.333-5.003 6-3.464L106 62.036z" fill="#F7F7F7"/><g clip-path="url(#clip0_3886_38889)"><g clip-path="url(#clip1_3886_38889)" fill="#0095FF"><path d="M35.03 83.198c.362.332.674.605.967.908.43.439.43.83-.01 1.279a689.822 689.822 0 01-3.729 3.728c-.44.44-.83.44-1.269.01-.303-.293-.576-.615-.898-.956a402.07 402.07 0 00-2.187 2.196c-.127.127-.244.263-.38.38-.381.333-.82.342-1.133.03-.312-.312-.322-.771.03-1.132a91.776 91.776 0 011.688-1.69c.274-.272.557-.536.8-.78-3.035-3.036-6.022-6.013-9.087-9.079-.4.42-.84.889-1.29 1.347-.35.362-.712.723-1.073 1.074-.43.42-.898.46-1.24.108-.322-.342-.283-.791.117-1.201.801-.81 1.611-1.61 2.548-2.548-.341-.283-.683-.527-.976-.82-.468-.459-.468-.85-.02-1.308 1.24-1.269 2.48-2.509 3.73-3.748.439-.43.83-.43 1.279.01.302.292.585.605.937.975.42-.449.77-.839 1.151-1.22 1.172-1.18 2.353-2.343 3.515-3.524.322-.332.664-.459 1.122-.459 5.174.01 10.348.03 15.522-.01 1.962-.019 3.387.723 4.227 2.588.156-.098.302-.186.449-.283 3.602-2.402 7.194-4.803 10.796-7.195 1.533-1.015 3.436-.761 4.578.596 1.28 1.522 1.016 3.719-.644 4.998-1.65 1.269-3.329 2.499-4.988 3.748a3694.94 3694.94 0 01-12.378 9.264 1.889 1.889 0 01-1.015.342c-2.753.029-5.496.02-8.25.01-.36 0-.604.107-.848.36-.645.655-1.299 1.28-2.04 2.002zm-1.005-1.172c.761-.761 1.542-1.522 2.294-2.303.303-.323.634-.45 1.084-.45 2.801.01 5.593.01 8.395 0 .224 0 .497-.068.663-.195 5.72-4.275 11.432-8.56 17.133-12.846.907-.683 1.083-1.757.478-2.626-.586-.83-1.689-1.025-2.597-.42a3141.04 3141.04 0 00-11.646 7.77.802.802 0 00-.322.44c-.468 2-1.942 3.192-3.983 3.192h-9.713c-.146 0-.302.01-.439-.02-.39-.097-.625-.36-.615-.77 0-.41.244-.665.635-.752.156-.04.322-.02.488-.02h9.664c1.425 0 2.48-.996 2.48-2.323.01-1.338-1.045-2.353-2.46-2.353-5.194 0-10.377-.01-15.57.01-.225 0-.498.127-.665.283-1.24 1.2-2.45 2.43-3.67 3.65-.234.235-.498.46-.722.655 3.065 3.055 6.052 6.043 9.088 9.078zm.273 2.734a7147.296 7147.296 0 01-12.017-12.037c-.888.879-1.796 1.797-2.665 2.656l12.027 12.026c.869-.859 1.777-1.767 2.655-2.645zm-4.235-26.65c0-8.484 5.486-15.21 13.13-16.781 9.087-1.865 17.941 4.217 19.435 13.412.215 1.338.146 2.724.156 4.08 0 .606-.38.957-.85.899-.477-.049-.741-.459-.692-1.045.332-4.217-.84-7.985-3.69-11.099-4.022-4.403-9.069-5.984-14.828-4.48-5.809 1.522-9.401 5.437-10.768 11.274-.751 3.222-.322 6.365 1.094 9.372.351.751.283 1.19-.235 1.415-.488.215-.84-.01-1.19-.751-1.045-2.216-1.553-4.55-1.563-6.297z"/><path d="M59.805 57.583c-.127.86-.244 1.845-.41 2.812-.107.605-.498.878-.976.761-.469-.117-.674-.488-.547-1.074.684-3.182.196-6.17-1.532-8.941-2.538-4.052-7.43-6.16-12.095-5.233-4.793.957-8.483 4.686-9.313 9.43-.527 2.997.04 5.78 1.65 8.366.039.068.088.137.127.205.292.498.224.947-.186 1.19-.4.245-.81.118-1.122-.34a12.778 12.778 0 01-1.816-4.081 13.296 13.296 0 0111.04-16.43c7.088-1.015 13.843 3.964 14.926 11.012.117.722.166 1.455.254 2.323z"/><path d="M47.243 56.623c1.054 0 2.04-.03 3.036.02.263.01.595.195.742.41.117.175.097.566-.03.751-.126.195-.439.352-.683.361a80.53 80.53 0 01-3.807.01c-.517-.01-.82-.303-.83-.82a480.44 480.44 0 010-5.369c0-.498.322-.83.772-.83.458 0 .78.332.79.87.01 1.336 0 2.664 0 4.001.01.176.01.352.01.596zm-1.563-8.186c0-.8.234-1.161.761-1.171.547-.01.8.37.8 1.19v.342c-.029.488-.35.82-.79.81-.44 0-.752-.331-.771-.82v-.35zm-8.2 9.758c-.79 0-1.161-.244-1.171-.771-.01-.547.37-.8 1.19-.79h.342c.489.028.81.35.81.79-.01.44-.331.742-.83.771h-.34zm17.963-1.57c.79 0 1.162.244 1.171.771.01.547-.37.8-1.19.8h-.342c-.488-.029-.81-.35-.81-.79.01-.44.331-.742.83-.771.116-.01.224-.01.34-.01zm-1.553 4.141c.517.351.986.585 1.327.947.137.156.069.624-.058.868-.156.303-.518.39-.85.235a5.267 5.267 0 01-.878-.508c-.283-.205-.43-.537-.234-.859.136-.244.41-.42.693-.683zM43.093 49.96c-.244.282-.39.556-.625.702-.302.205-.654.098-.869-.176a4.7 4.7 0 01-.556-.956c-.146-.332-.03-.693.283-.84.244-.117.693-.166.84-.03.351.343.585.811.927 1.3zm9.011-.675c-.361.508-.635.986-1.015 1.348-.137.127-.635.048-.81-.108-.186-.156-.284-.556-.225-.8.068-.332.303-.635.508-.928.214-.292.556-.39.859-.224.234.146.4.42.683.712zm-12.3 3.78c-.01.596-.556.986-1.064.771a4.375 4.375 0 01-.878-.507c-.293-.215-.41-.566-.235-.86.137-.224.518-.536.674-.487.498.175.947.488 1.396.78.088.06.088.235.107.303zm15.55-.351c.01.468-.332.673-.674.858-.36.206-.712.479-1.171.215-.459-.273-.537-.898-.127-1.23.283-.234.615-.42.957-.556.488-.205 1.005.185 1.015.713zm-15.54 9.009c-.01.04-.02.117-.039.196-.136.439-1.142 1.083-1.571.927-.235-.088-.518-.332-.576-.566-.059-.225.068-.586.244-.762.244-.244.586-.41.908-.537.478-.195 1.015.186 1.034.742zm11.08 2.347c.098.07.332.147.459.303.205.264.37.567.507.879.166.38.04.713-.302.927-.361.235-.733.176-.996-.156a3.735 3.735 0 01-.527-.917c-.205-.508.215-1.055.859-1.035z"/></g></g><defs><clipPath id="clip0_3886_38889"><path fill="#fff" transform="translate(16 41)" d="M0 0h50v50H0z"/></clipPath><clipPath id="clip1_3886_38889"><path fill="#fff" transform="translate(16.004 41)" d="M0 0h49.99v50H0z"/></clipPath></defs></svg>