<svg width="22" height="22" fill="none" xmlns="http://www.w3.org/2000/svg"><g clip-path="url(#clip0_3885_25324)"><path d="M11.573 21.713s0 0 0 0h0v-.001h.001l4.468-4.49a.81.81 0 00-1.147-1.143l-3 3.015-.086.086V.86a.81.81 0 00-1.618 0v18.32l-.086-.086-3-3.014a.81.81 0 10-1.147 1.142l4.467 4.49h1.148zm0 0a.81.81 0 01-1.146 0l-.035.035 1.18-.035z" fill="#000" stroke="#000" stroke-width=".1"/></g><defs><clipPath id="clip0_3885_25324"><path fill="#fff" transform="rotate(90 11 11)" d="M0 0h22v22H0z"/></clipPath></defs></svg>