<svg width="22" height="22" fill="none" xmlns="http://www.w3.org/2000/svg"><g clip-path="url(#clip0_3901_40789)"><path d="M.287 11.573s0 0 0 0h.001v.001l4.49 4.468a.81.81 0 101.142-1.147l-3.014-3-.086-.086h18.32a.81.81 0 000-1.618H2.82l.086-.086 3.014-3a.81.81 0 10-1.142-1.147l-4.49 4.467v1.148zm0 0a.81.81 0 010-1.146l-.035-.035.035 1.18z" fill="#000" stroke="#000" stroke-width=".1"/></g><defs><clipPath id="clip0_3901_40789"><path fill="#fff" transform="rotate(-180 11 11)" d="M0 0h22v22H0z"/></clipPath></defs></svg>