<svg width="20" height="20" fill="none" xmlns="http://www.w3.org/2000/svg"><g clip-path="url(#clip0_3901_36335)"><g clip-path="url(#clip1_3901_36335)"><g clip-path="url(#clip2_3901_36335)" fill="#fff"><path d="M2.133 1.383c-.49 0-.96.005-1.435 0C.164 1.37-.159.836.082.375a.657.657 0 01.612-.37C1.375 0 2.06 0 2.741.004c.4.004.668.258.711.663.09.84.177 1.685.263 2.525.009.078.022.155.039.254h14.609c.75 0 1.323.418 1.435 1.104.047.28 0 .586-.06.87a1144.93 1144.93 0 01-1.586 7.404c-.22 1.012-1.039 1.655-2.078 1.655-3.546 0-7.097.004-10.644 0-1.15 0-1.995-.793-2.111-1.935-.207-1.983-.427-3.97-.634-5.952-.18-1.693-.353-3.383-.53-5.076-.004-.035-.013-.07-.022-.134zM3.892 4.84c.082.785.163 1.539.245 2.297l.556 5.266c.052.479.302.699.785.699H16.03c.453 0 .69-.19.785-.634.474-2.202.943-4.404 1.418-6.602.073-.34.142-.677.22-1.026H3.891zM6.206 20a2.072 2.072 0 01-2.064-2.073 2.069 2.069 0 014.137.009A2.08 2.08 0 016.206 20zm.69-2.069a.695.695 0 00-.682-.69.693.693 0 00-.693.677c-.009.38.31.703.69.703a.696.696 0 00.684-.69zM14.48 20a2.072 2.072 0 01-2.064-2.073 2.07 2.07 0 014.137.009A2.08 2.08 0 0114.48 20zm.69-2.06a.698.698 0 00-.672-.698.696.696 0 00-.703.668.697.697 0 00.685.706.692.692 0 00.69-.676z"/></g></g></g><defs><clipPath id="clip0_3901_36335"><path fill="#fff" d="M0 0h20v20H0z"/></clipPath><clipPath id="clip1_3901_36335"><path fill="#fff" d="M0 0h20v20H0z"/></clipPath><clipPath id="clip2_3901_36335"><path fill="#fff" d="M0 0h19.815v20H0z"/></clipPath></defs></svg>