<svg width="14" height="14" fill="none" xmlns="http://www.w3.org/2000/svg"><g clip-path="url(#clip0_3885_27542)" fill="#0095FF"><path d="M5.1 7.724a.318.318 0 00-.318-.318H3.673a.318.318 0 00-.318.318v1.108c0 .176.143.318.318.318h1.109a.318.318 0 00.318-.318V7.724zm2.771 0a.318.318 0 00-.317-.318h-1.11a.318.318 0 00-.317.318v1.108c0 .176.142.318.318.318h1.109a.318.318 0 00.317-.318V7.724zm2.772 0a.318.318 0 00-.318-.318H9.216a.318.318 0 00-.318.318v1.108c0 .176.143.318.318.318h1.11a.318.318 0 00.317-.318V7.724zM5.1 10.497a.318.318 0 00-.318-.317H3.673a.318.318 0 00-.318.317v1.109c0 .175.143.318.318.318h1.109a.318.318 0 00.318-.318v-1.109zm2.771 0a.318.318 0 00-.317-.317h-1.11a.318.318 0 00-.317.317v1.109c0 .175.142.318.318.318h1.109a.318.318 0 00.317-.318v-1.109zm2.772 0a.318.318 0 00-.318-.317H9.216a.318.318 0 00-.318.317v1.109c0 .175.143.318.318.318h1.11a.318.318 0 00.317-.318v-1.109z"/><path d="M12.625 1.56v1.694c0 .766-.62 1.383-1.386 1.383h-.874A1.39 1.39 0 018.97 3.254v-1.7H5.028v1.7a1.39 1.39 0 01-1.394 1.383h-.875a1.383 1.383 0 01-1.386-1.383V1.561A1.26 1.26 0 00.154 2.815v9.925c0 .693.562 1.262 1.255 1.262h11.18c.692 0 1.255-.57 1.255-1.262V2.815c0-.68-.55-1.234-1.219-1.254zm-.406 10.562c0 .3-.243.542-.542.542h-9.38a.543.543 0 01-.542-.542V6.995c0-.3.243-.543.543-.543h9.379c.3 0 .542.243.542.543v5.127z"/><path d="M2.757 3.727h.865a.475.475 0 00.475-.475V.475A.475.475 0 003.622 0h-.865a.475.475 0 00-.476.475v2.777c0 .262.213.475.476.475zm7.597 0h.865a.475.475 0 00.476-.475V.475A.475.475 0 0011.219 0h-.865a.475.475 0 00-.475.475v2.777c0 .262.213.475.475.475z"/></g><defs><clipPath id="clip0_3885_27542"><path fill="#fff" d="M0 0h14v14H0z"/></clipPath></defs></svg>