<svg width="20" height="20" fill="none" xmlns="http://www.w3.org/2000/svg"><g clip-path="url(#clip0_3908_2537)" fill="#000"><path d="M2.883 9.998v-7.81c0-1.04.656-1.883 1.648-2.126C4.71.02 4.902 0 5.089 0c2.352 0 4.703.004 7.054 0 .617 0 1.14.21 1.585.633a744.013 744.013 0 003.617 3.42c.527.493.773 1.083.773 1.805-.008 3.972-.004 7.94-.004 11.912 0 1.078-.652 1.93-1.663 2.168-.176.043-.36.058-.543.058-3.605.004-7.214.004-10.819 0-1.269 0-2.202-.933-2.206-2.206V9.998zm9.139-8.822H5.156c-.711 0-1.102.386-1.102 1.093v15.462c0 .699.391 1.093 1.082 1.093h10.72c.692 0 1.087-.394 1.087-1.093V5.862h-3.441c-.906 0-1.48-.57-1.48-1.468V1.176zm4.284 3.51c-1.055-.995-2.066-1.952-3.109-2.94v2.722c0 .14.078.219.219.219h2.89z"/><path d="M10.362 8.987H6.13c-.485 0-.774-.457-.555-.864.117-.214.305-.312.547-.312h8.51c.476 0 .773.43.578.836-.117.242-.324.34-.59.34-1.37-.004-2.745 0-4.116 0h-.14zm.019 1.948h4.253c.465 0 .762.426.574.824-.11.235-.305.348-.562.348H6.214c-.086 0-.172.004-.254-.016a.584.584 0 01.144-1.156c1.348-.004 2.695 0 4.039 0h.238zM7.514 14.06h1.363c.371 0 .64.257.637.593-.004.332-.27.578-.633.578-.918.004-1.831.004-2.75 0-.374 0-.636-.25-.632-.593.004-.332.266-.578.629-.578h1.386z"/></g><defs><clipPath id="clip0_3908_2537"><path fill="#fff" transform="translate(2.883)" d="M0 0h15.235v20H0z"/></clipPath></defs></svg>