<svg width="22" height="24" fill="none" xmlns="http://www.w3.org/2000/svg"><g clip-path="url(#clip0_3904_1827)"><path d="M13.443 3.113c.586.332 1.181.6 1.702.975 2.194 1.58 3.36 3.73 3.422 6.445.032 1.49.004 2.986.009 4.476 0 .38.061.45.436.479 1.331.107 2.372.98 2.606 2.175a2.713 2.713 0 01-2.639 3.243c-1.467.01-2.939 0-4.406 0h-.267c-.15 1.018-.619 1.838-1.444 2.438-.628.454-1.331.66-2.11.656-1.415-.01-3.126-1.087-3.403-3.094h-.253c-1.453 0-2.906.005-4.359 0-1.594-.004-2.794-1.256-2.742-2.845.042-1.256 1.097-2.39 2.372-2.545.08-.01.154-.02.234-.024.455-.042.488-.08.488-.548 0-1.5-.033-3 .004-4.5.09-3.314 1.674-5.672 4.66-7.092.145-.07.36-.09.43-.207.076-.112.006-.314.006-.478a2.64 2.64 0 115.278.07c0 .136-.014.272-.024.376zm-2.606 16.242h8.081c.652-.014 1.153-.455 1.195-1.055.043-.637-.384-1.153-1.045-1.252-.183-.028-.375-.023-.558-.06-.886-.183-1.486-.929-1.49-1.847a703.228 703.228 0 010-4.454 6.47 6.47 0 00-.431-2.38c-1.21-3.17-4.575-4.782-7.768-3.723-2.423.807-4.157 3.16-4.18 5.71-.015 1.608 0 3.215-.006 4.828-.004.937-.604 1.683-1.495 1.866-.197.042-.403.032-.605.065-.83.14-1.26 1.036-.83 1.73.263.417.648.576 1.121.576 2.672-.004 5.344-.004 8.011-.004zm-1.875 1.56c.136.905 1.055 1.6 2.002 1.534.862-.057 1.715-.812 1.73-1.533H8.961zm2.934-18.168c.122-.352-.159-.811-.426-.999a1.088 1.088 0 00-1.228-.018c-.361.239-.544.642-.464 1.017h2.118z" fill="#000"/></g><defs><clipPath id="clip0_3904_1827"><path fill="#fff" d="M0 0h21.675v24H0z"/></clipPath></defs></svg>