<svg width="25" height="17" fill="none" xmlns="http://www.w3.org/2000/svg"><g clip-path="url(#clip0_3904_1824)"><path d="M12.078 17H2.24c-.736 0-1.352-.26-1.805-.854-.31-.404-.434-.872-.434-1.378V5.93c0-1.24-.004-2.482 0-3.72.003-.908.403-1.58 1.211-2a2.18 2.18 0 01.97-.211c6.603 0 13.205-.004 19.81 0 1.259 0 2.18.933 2.184 2.19.004 4.204.004 8.412 0 12.616 0 1.05-.63 1.865-1.64 2.126a2.56 2.56 0 01-.638.06c-3.274.008-6.545.008-9.82.008zM2.458 1.435c.05.057.072.09.102.117 2.66 2.644 5.315 5.296 7.985 7.932.223.219.506.412.793.521.869.329 1.65.12 2.3-.525 2.66-2.636 5.31-5.28 7.966-7.92.034-.034.056-.072.098-.121-6.417-.004-12.815-.004-19.243-.004zm13.178 8.038c-.355.362-.664.69-.986 1.008-1.45 1.431-3.542 1.465-5.038.08-.313-.291-.608-.601-.914-.903-.05-.05-.098-.091-.174-.163-2.005 2.04-3.996 4.072-5.952 6.066h19.04c-1.965-1.998-3.951-4.026-5.976-6.088zM1.48 2.459c-.015.007-.026.019-.041.026V14.52c.015.01.034.018.049.03 1.994-2.032 3.988-4.06 5.937-6.05-1.956-1.991-3.95-4.016-5.945-6.04zM16.69 8.55l6.047 6.01V2.477l-.045-.023A8723.712 8723.712 0 0116.69 8.55z" fill="#000"/></g><defs><clipPath id="clip0_3904_1824"><path fill="#fff" d="M0 0h24.176v17H0z"/></clipPath></defs></svg>