<svg width="24" height="24" fill="none" xmlns="http://www.w3.org/2000/svg"><g clip-path="url(#clip0_3904_1832)" fill="#000"><path d="M10.59 24c-2.018 0-4.031 0-5.997-.005A4.57 4.57 0 010 19.407V6.582c0-2.717 1.975-4.706 4.697-4.73h.884V.879C5.585.378 5.949 0 6.426 0c.478 0 .846.378.851.879.005.194 0 .383 0 .581v.373h9.45V.917c.005-.534.36-.917.851-.917h.01c.482.005.836.387.84.912v.973h.095c.147 0 .289-.004.43-.004.142 0 .274-.005.407-.005.18 0 .33.005.472.014 1.002.062 1.98.506 2.755 1.248.775.742 1.262 1.696 1.37 2.693.024.232.043.43.043.624v.524c0 4.069.005 8.28 0 12.418a4.56 4.56 0 01-.992 2.873 4.55 4.55 0 01-2.58 1.607c-.336.076-.68.118-1.03.118-2.982.005-5.945.005-8.809.005zM1.705 12.343v6.974c0 1.725 1.247 2.982 2.958 2.982 2.462 0 4.924.005 7.386.005 2.476 0 4.933 0 7.305-.005 1.71 0 2.949-1.252 2.949-2.968V9.143H1.7l.005 3.2zm3.17-8.799c-1.053 0-1.913.354-2.48 1.02-.59.695-.827 1.707-.652 2.774l.014.08H22.27l.01-.084c.142-1.158-.1-2.127-.704-2.807-.558-.633-1.408-.983-2.391-.983-.217 0-.444.019-.671.052l-.08.014v.08c0 .166 0 .336.004.501.005.416.01.841-.014 1.257-.01.199-.09.43-.208.6a.73.73 0 01-.614.298.918.918 0 01-.298-.052.839.839 0 01-.572-.794c-.004-.42-.004-.836-.004-1.276v-.652H7.277v.657c0 .43.005.837-.005 1.248-.004.491-.373.86-.85.86h-.014c-.478-.005-.832-.369-.837-.865-.005-.33-.005-.666 0-.988v-.59c0-.057-.005-.109-.01-.161 0-.024-.004-.043-.004-.066l-.005-.08-.08-.01a6.373 6.373 0 00-.595-.033z"/><path d="M6.44 19.374c-.307 0-.633-.005-.964-.01a.852.852 0 01-.831-.85.85.85 0 01.855-.846c.104 0 .217-.005.354-.005h1.163c.132 0 .245 0 .35.005.472.01.836.369.845.836a.846.846 0 01-.822.86c-.307.01-.629.01-.95.01zm11.71 0h-1.143c-.114 0-.222 0-.336-.005-.496-.01-.874-.387-.87-.86.005-.472.379-.836.865-.84.312-.006.624-.006.922-.006.312 0 .619 0 .917.005.482.005.86.378.86.846a.861.861 0 01-.856.855c-.104 0-.217.005-.359.005zm-5.576-5.576H11.43c-.132 0-.245 0-.35-.005-.486-.01-.86-.373-.864-.846a.842.842 0 01.869-.854c.303-.006.605-.006.912-.006.298 0 .605 0 .908.005.5.005.874.373.869.855-.005.473-.373.837-.86.846-.1.005-.208.005-.34.005zm5 0c-.312 0-.629-.005-.936-.01a.846.846 0 01-.836-.845c0-.468.373-.841.85-.85.104 0 .218-.006.355-.006h1.157c.133 0 .246 0 .345.005a.86.86 0 01.85.855.846.846 0 01-.84.842c-.312.009-.633.009-.945.009zM11.43 19.37c-.132 0-.245 0-.35-.006a.864.864 0 01-.864-.845.843.843 0 01.869-.855c.293-.005.6-.005.907-.005.298 0 .6 0 .912.004.501.005.875.369.875.85 0 .478-.383.842-.884.851h-1.191c-.09.005-.18.005-.274.005zm-4.428-5.572H5.854c-.113 0-.231 0-.345-.005-.496-.01-.879-.387-.87-.86a.857.857 0 01.866-.84c.32-.006.633-.006.935-.006.307 0 .614 0 .907.005a.85.85 0 01.856.846.854.854 0 01-.856.85c-.099.01-.212.01-.345.01z"/></g><defs><clipPath id="clip0_3904_1832"><path fill="#fff" d="M0 0h24.009v24H0z"/></clipPath></defs></svg>