<svg width="1840" height="760" fill="none" xmlns="http://www.w3.org/2000/svg"><path opacity=".4" d="M919.5 722.5c-.892 0-1.776.027-2.651.079l.03.499a44.686 44.686 0 00-5.205.618l-.088-.492a47.585 47.585 0 00-5.152 1.22l.142.479a51.103 51.103 0 00-4.94 1.746l-.19-.462a56.746 56.746 0 00-4.79 2.243l.233.442a62.501 62.501 0 00-4.532 2.633l-.268-.422a70.16 70.16 0 00-4.342 3.004l.299.401a78.349 78.349 0 00-4.089 3.278l-.325-.38a87.673 87.673 0 00-3.898 3.554l.347.36a95.25 95.25 0 00-3.664 3.749l-.367-.34a102.39 102.39 0 00-3.477 3.96l.384.321a104.093 104.093 0 00-3.251 4.106l-.399-.3a96.435 96.435 0 00-1.553 2.123 11.38 11.38 0 01-1.672 1.876l.334.372c-1.314 1.18-2.878 2.049-4.572 2.495l-.127-.484a9.673 9.673 0 01-2.472.322h-2.498v.5h-4.995v-.5h-4.996v.5h-4.995v-.5h-4.996v.5h-4.995v-.5h-4.996v.5h-4.996v-.5h-4.995v.5h-4.996v-.5h-4.995v.5h-4.996v-.5h-4.995v.5h-4.996v-.5h-4.995v.5h-4.996v-.5h-4.996v.5h-4.995v-.5h-4.996v.5h-4.995v-.5h-4.996v.5h-4.995v-.5h-4.996v.5h-4.996v-.5h-4.995v.5h-4.996v-.5h-4.995v.5h-4.996v-.5h-4.995v.5h-4.996v-.5h-4.995v.5h-4.996v-.5h-4.996v.5h-4.995v-.5h-4.996v.5h-4.995v-.5h-4.996v.5h-4.995v-.5h-4.996v.5h-4.995v-.5h-4.996v.5h-4.996v-.5h-4.995v.5h-4.996v-.5h-4.995v.5h-4.996v-.5h-4.995v.5h-4.996v-.5h-4.996v.5h-4.995v-.5h-4.996v.5h-4.995v-.5h-4.996v.5h-4.995v-.5h-4.996v.5h-4.995v-.5h-4.996v.5h-4.995v-.5h-4.996v.5h-4.996v-.5h-4.995v.5h-4.996v-.5h-4.995v.5h-4.996v-.5h-4.995v.5h-4.996v-.5h-4.995v.5h-4.996v-.5h-4.995v.5h-4.996v-.5h-4.996v.5h-4.995v-.5h-4.996v.5h-4.995v-.5h-4.996v.5h-4.995v-.5h-4.996v.5h-4.995v-.5h-4.996v.5h-4.995v-.5h-4.996v.5h-4.996v-.5h-4.995v.5h-4.996v-.5h-4.995v.5h-4.996v-.5h-4.995v.5h-4.996v-.5h-4.995v.5h-4.996v-.5h-4.995v.5h-4.996v-.5h-4.996v.5h-4.995v-.5h-4.996v.5h-4.995v-.5h-4.996v.5h-4.995v-.5h-4.996v.5h-4.995v-.5h-4.996v.5h-4.995v-.5h-4.996v.5h-4.995v-.5h-4.996v.5h-4.996v-.5h-4.995v.5h-4.996v-.5h-4.995v.5h-4.996v-.5h-4.995v.5h-4.996v-.5h-4.995v.5h-4.996v-.5h-4.995v.5h-4.996v-.5h-4.996v.5h-4.995v-.5h-4.996v.5h-4.995v-.5h-4.996v.5h-4.995v-.5h-4.996v.5h-4.995v-.5h-4.996v.5h-4.996v-.5h-4.995v.5h-4.996v-.5h-4.995v.5h-4.996v-.5h-4.995v.5h-4.996v-.5h-4.995v.5h-4.996v-.5h-4.995v.5h-4.996v-.5h-4.995v.5h-4.996v-.5h-4.996v.5h-4.995v-.5h-4.996v.5h-4.995v-.5h-4.996v.5h-4.995v-.5h-4.996v.5h-4.995v-.5h-4.996v.5h-4.995v-.5h-4.996v.5h-4.996v-.5h-4.995v.5h-4.996v-.5h-4.995v.5h-4.996v-.5h-4.995v.5h-4.996v-.5h-4.995v.5h-4.996v-.5h-4.995v.5h-4.996v-.5H57.46v.5h-4.996v-.5h-4.996v.5h-4.995v-.5h-4.996v.5h-4.995v-.5h-4.996v.5h-4.995v-.5h-4.996v.5H12.5v-.5H10a9.517 9.517 0 01-1.855-.181l-.097.491a9.957 9.957 0 01-3.604-1.494l.278-.416a9.56 9.56 0 01-2.622-2.622l-.416.278a9.942 9.942 0 01-1.494-3.604l.49-.097c-.118-.6-.18-1.22-.18-1.855v-2.5H0v-5h.5v-5H0v-5h.5v-5H0v-5h.5v-5H0v-5h.5v-5H0v-5h.5v-5H0v-5h.5v-5H0v-5h.5v-5H0v-5h.5v-5H0v-5h.5v-5H0v-5h.5v-5H0v-5h.5v-5H0v-5h.5v-5H0v-5h.5v-5H0v-5h.5v-5H0v-5h.5v-5H0v-5h.5v-5H0v-5h.5v-5H0v-5h.5v-5H0v-5h.5v-5H0v-5h.5v-5H0v-5h.5v-5H0v-5h.5v-5H0v-5h.5v-5H0v-5h.5v-5H0v-5h.5v-5H0v-5h.5v-5H0v-5h.5v-5H0v-5h.5v-5H0v-5h.5v-5H0v-5h.5v-5H0v-5h.5v-5H0v-5h.5v-5H0v-5h.5v-5H0v-5h.5v-5H0v-5h.5v-5H0v-5h.5v-5H0v-5h.5v-5H0v-5h.5v-5H0v-5h.5v-5H0v-5h.5v-5H0v-5h.5v-5H0v-5h.5v-5H0v-5h.5v-5H0v-5h.5v-5H0v-5h.5v-5H0v-5h.5v-5H0v-5h.5v-5H0v-5h.5v-5H0v-5h.5v-5H0v-5h.5v-5H0v-5h.5v-5H0v-5h.5v-5H0v-5h.5v-5H0v-5h.5v-5H0v-5h.5v-5H0v-5h.5v-5H0v-5h.5v-5H0v-5h.5v-5H0v-5h.5v-5H0v-5h.5v-5H0v-5h.5v-5H0v-5h.5v-5H0v-5h.5v-5H0v-5h.5v-5H0v-5h.5v-5H0v-5h.5v-5H0v-5h.5v-5H0v-5h.5v-5H0v-5h.5v-5H0v-5h.5v-5H0v-5h.5v-5H0v-5h.5v-5H0v-5h.5v-5H0v-5h.5V10c0-.635.062-1.255.18-1.855l-.49-.097a9.944 9.944 0 011.494-3.604l.416.278A9.555 9.555 0 014.722 2.1l-.278-.416A9.944 9.944 0 018.048.19l.097.49C8.745.563 9.365.5 10 .5h2.5V0h5v.5h5V0h5v.5h5V0h5v.5h5V0h5v.5h5V0h5v.5h5V0h5v.5h5V0h5v.5h5V0h5v.5h5V0h5v.5h5V0h5v.5h5V0h5v.5h5V0h5v.5h5V0h5v.5h5V0h5v.5h5V0h5v.5h5V0h5v.5h5V0h5v.5h5V0h5v.5h5V0h5v.5h5V0h5v.5h5V0h5v.5h5V0h5v.5h5V0h5v.5h5V0h5v.5h5V0h5v.5h5V0h5v.5h5V0h5v.5h5V0h5v.5h5V0h5v.5h5V0h5v.5h5V0h5v.5h5V0h5v.5h5V0h5v.5h5V0h5v.5h5V0h5v.5h5V0h5v.5h5V0h5v.5h5V0h5v.5h5V0h5v.5h5V0h5v.5h5V0h5v.5h5V0h5v.5h5V0h5v.5h5V0h5v.5h5V0h5v.5h5V0h5v.5h5V0h5v.5h5V0h5v.5h5V0h5v.5h5V0h5v.5h5V0h5v.5h5V0h5v.5h5V0h5v.5h5V0h5v.5h5V0h5v.5h5V0h5v.5h5V0h5v.5h5V0h5v.5h5V0h5v.5h5V0h5v.5h5V0h5v.5h5V0h5v.5h5V0h5v.5h5V0h5v.5h5V0h5v.5h5V0h5v.5h5V0h5v.5h5V0h5v.5h5V0h5v.5h5V0h5v.5h5V0h5v.5h5V0h5v.5h5V0h5v.5h5V0h5v.5h5V0h5v.5h5V0h5v.5h5V0h5v.5h5V0h5v.5h5V0h5v.5h5V0h5v.5h5V0h5v.5h5V0h5v.5h5V0h5v.5h5V0h5v.5h5V0h5v.5h5V0h5v.5h5V0h5v.5h5V0h5v.5h5V0h5v.5h5V0h5v.5h5V0h5v.5h5V0h5v.5h5V0h5v.5h5V0h5v.5h5V0h5v.5h5V0h5v.5h5V0h5v.5h5V0h5v.5h5V0h5v.5h5V0h5v.5h5V0h5v.5h5V0h5v.5h5V0h5v.5h5V0h5v.5h5V0h5v.5h5V0h5v.5h5V0h5v.5h5V0h5v.5h5V0h5v.5h5V0h5v.5h5V0h5v.5h5V0h5v.5h5V0h5v.5h5V0h5v.5h5V0h5v.5h5V0h5v.5h5V0h5v.5h5V0h5v.5h5V0h5v.5h5V0h5v.5h5V0h5v.5h5V0h5v.5h5V0h5v.5h5V0h5v.5h5V0h5v.5h5V0h5v.5h5V0h5v.5h5V0h5v.5h5V0h5v.5h5V0h5v.5h5V0h5v.5h5V0h5v.5h5V0h5v.5h5V0h5v.5h5V0h5v.5h5V0h5v.5h5V0h5v.5h5V0h5v.5h5V0h5v.5h5V0h5v.5h5V0h5v.5h5V0h5v.5h5V0h5v.5h5V0h5v.5h5V0h5v.5h5V0h5v.5h5V0h5v.5h5V0h5v.5h5V0h5v.5h5V0h5v.5h5V0h5v.5h5V0h5v.5h5V0h5v.5h5V0h5v.5h5V0h5v.5h5V0h5v.5h5V0h5v.5h5V0h5v.5h5V0h5v.5h5V0h5v.5h5V0h5v.5h5V0h5v.5h5V0h5v.5h5V0h5v.5h5V0h5v.5h5V0h5v.5h5V0h5v.5h5V0h5v.5h5V0h5v.5h5V0h5v.5h5V0h5v.5h5V0h5v.5h5V0h5v.5h5V0h5v.5h5V0h5v.5h5V0h5v.5h5V0h5v.5h5V0h5v.5h5V0h5v.5h5V0h5v.5h5V0h5v.5h5V0h5v.5h2.5c.64 0 1.26.062 1.85.18l.1-.49c1.31.26 2.53.776 3.61 1.494l-.28.416a9.581 9.581 0 012.62 2.622l.42-.278a10.093 10.093 0 011.49 3.604l-.49.097c.12.6.18 1.22.18 1.855v2.5h.5v5h-.5v5h.5v5h-.5v5h.5v5h-.5v5h.5v5h-.5v5h.5v5h-.5v5h.5v5h-.5v5h.5v5h-.5v5h.5v5h-.5v5h.5v5h-.5v5h.5v5h-.5v5h.5v5h-.5v5h.5v5h-.5v5h.5v5h-.5v5h.5v5h-.5v5h.5v5h-.5v5h.5v5h-.5v5h.5v5h-.5v5h.5v5h-.5v5h.5v5h-.5v5h.5v5h-.5v5h.5v5h-.5v5h.5v5h-.5v5h.5v5h-.5v5h.5v5h-.5v5h.5v5h-.5v5h.5v5h-.5v5h.5v5h-.5v5h.5v5h-.5v5h.5v5h-.5v5h.5v5h-.5v5h.5v5h-.5v5h.5v5h-.5v5h.5v5h-.5v5h.5v5h-.5v5h.5v5h-.5v5h.5v5h-.5v5h.5v5h-.5v5h.5v5h-.5v5h.5v5h-.5v5h.5v5h-.5v5h.5v5h-.5v5h.5v5h-.5v5h.5v5h-.5v5h.5v5h-.5v5h.5v5h-.5v5h.5v5h-.5v5h.5v5h-.5v5h.5v5h-.5v5h.5v5h-.5v5h.5v5h-.5v5h.5v5h-.5v5h.5v5h-.5v5h.5v5h-.5v5h.5v5h-.5v5h.5v5h-.5v5h.5v5h-.5v5h.5v5h-.5v5h.5v5h-.5v5h.5v5h-.5v5h.5v5h-.5v5h.5v5h-.5v5h.5v5h-.5v5h.5v5h-.5v5h.5v5h-.5v5h.5v5h-.5v5h.5v5h-.5v5h.5v5h-.5v5h.5v5h-.5v5h.5v5h-.5v5h.5v5h-.5v5h.5v5h-.5v5h.5v5h-.5v5h.5v5h-.5v5h.5v5h-.5v2.5a9.45 9.45 0 01-.18 1.855l.49.097a10.09 10.09 0 01-1.49 3.604l-.42-.278a9.587 9.587 0 01-2.62 2.622l.28.416a10.05 10.05 0 01-3.61 1.494l-.1-.491c-.59.119-1.21.181-1.85.181h-2.5v.5h-5.01v-.5h-5v.5h-5.01v-.5h-5v.5h-5.01v-.5h-5v.5h-5.01v-.5h-5v.5h-5.01v-.5h-5v.5h-5.01v-.5h-5v.5h-5.01v-.5h-5v.5h-5v-.5h-5.01v.5h-5v-.5h-5.01v.5h-5v-.5h-5.01v.5h-5v-.5h-5.01v.5h-5v-.5h-5.01v.5h-5v-.5h-5.01v.5h-5v-.5h-5.01v.5h-5v-.5h-5.01v.5h-5v-.5h-5.01v.5h-5v-.5h-5.01v.5h-5v-.5h-5.01v.5h-5v-.5h-5.01v.5h-5v-.5h-5.01v.5h-5v-.5h-5v.5h-5.01v-.5h-5v.5h-5.01v-.5h-5v.5h-5.01v-.5h-5v.5h-5.01v-.5h-5v.5h-5.01v-.5h-5v.5h-5.01v-.5h-5v.5h-5.01v-.5h-5v.5h-5.01v-.5h-5v.5h-5.01v-.5h-5v.5h-5.01v-.5h-5v.5h-5.01v-.5h-5v.5h-5.01v-.5h-5v.5h-5.01v-.5h-5v.5h-5.01v-.5h-5v.5h-5v-.5h-5.01v.5h-5v-.5h-5.01v.5h-5v-.5h-5.01v.5h-5v-.5h-5.01v.5h-5v-.5h-5.01v.5h-5v-.5h-5.01v.5h-5v-.5h-5.01v.5h-5v-.5h-5.01v.5h-5v-.5h-5.01v.5h-5v-.5h-5.01v.5h-5v-.5h-5.01v.5h-5v-.5h-5.01v.5h-5v-.5h-5.01v.5h-5v-.5h-5v.5h-5.01v-.5h-5v.5h-5.01v-.5h-5v.5H1312v-.5h-5v.5h-5.01v-.5h-5v.5h-5.01v-.5h-5v.5h-5.01v-.5h-5v.5h-5.01v-.5h-5v.5h-5.01v-.5h-5v.5h-5.01v-.5h-5v.5h-5.01v-.5h-5v.5h-5.01v-.5h-5v.5h-5.01v-.5h-5v.5h-5.01v-.5h-5v.5h-5.01v-.5h-5v.5h-5v-.5h-5.01v.5h-5v-.5h-5.01v.5h-5v-.5h-5.01v.5h-5v-.5h-5.01v.5h-5v-.5h-5.01v.5h-5v-.5h-5.01v.5h-5v-.5h-5.01v.5h-5v-.5h-5.01v.5h-5v-.5h-5.01v.5h-5v-.5h-5.01v.5h-5v-.5h-5.01v.5h-5v-.5h-5.01v.5h-5v-.5h-5.01v.5h-5v-.5h-5v.5h-5.01v-.5h-5v.5h-5.01v-.5h-5v.5h-5.01v-.5h-5v.5h-5.01v-.5h-5v.5h-5.01v-.5h-5v.5h-5.01v-.5h-5.003v.5h-5.005v-.5h-5.004v.5h-5.005v-.5h-2.503a9.734 9.734 0 01-2.622-.362l-.135.481c-1.789-.5-3.428-1.471-4.78-2.775l.347-.36a11.703 11.703 0 01-1.698-2.063 87.105 87.105 0 00-1.446-2.159l-.411.285a88.602 88.602 0 00-3.063-4.163l.394-.308a87.343 87.343 0 00-3.326-4.004l-.375.331a80.693 80.693 0 00-3.544-3.767l.353-.354a75.316 75.316 0 00-3.811-3.549l-.328.378a69.209 69.209 0 00-4.032-3.244l.298-.401a62.782 62.782 0 00-4.305-2.936l-.264.425a57.493 57.493 0 00-4.51-2.534l.224-.447a53.626 53.626 0 00-4.769-2.118l-.18.466a50.304 50.304 0 00-4.911-1.615l.131-.482a48.784 48.784 0 00-5.107-1.104l-.079.494a48.192 48.192 0 00-5.144-.547l.026-.499a48.973 48.973 0 00-2.613-.069z" stroke="#C8C8C8" stroke-dasharray="5 5"/></svg>