<svg width="13" height="14" fill="none" xmlns="http://www.w3.org/2000/svg"><g clip-path="url(#clip0_3892_28565)" fill="#0095FF"><path d="M12.782 6.31L6.949.995a.664.664 0 00-.898 0L.218 6.31a.662.662 0 00-.172.734c.1.258.344.425.621.425H1.6v5.325c0 .211.171.383.382.383h3.197a.382.382 0 00.383-.383V9.561H7.44v3.233c0 .211.17.383.382.383h3.197a.382.382 0 00.382-.383V7.47h.932a.662.662 0 00.621-.425.663.663 0 00-.172-.734zM11.3 1.586H8.734l2.95 2.682v-2.3a.382.382 0 00-.382-.382z"/></g><defs><clipPath id="clip0_3892_28565"><path fill="#fff" transform="translate(0 .5)" d="M0 0h13v13H0z"/></clipPath></defs></svg>