<svg width="183" height="47" fill="none" xmlns="http://www.w3.org/2000/svg"><g clip-path="url(#clip0_3885_25380)" fill="#000"><path d="M.301 0c13.4 7.8 26.7 15.4 40.4 23.4-13.7 7.9-26.8 15.5-40.1 23.2-.6-2.3-.8-41.9-.3-46.6zm19.3 34.4c.8-3 .4-5.4.5-7.7.1-2.3.1-4.6 0-6.9-.1-2.3.5-4.7-.5-6.9-3 1.1-16.7 9.2-18.3 10.8 6 3.5 11.9 7 18.3 10.7zm43.1-16.8V6.7c2.8-.3 5.6-.5 8.4.3 1.1.3 1.9 1.1 2 2.6-.3.6-.6 1.4-1 2.2.1.2.1.3.2.3.9.9 2 1.8 1.4 3.3-.6 1.6-2 2.2-3.5 2.3-2.3 0-4.7-.1-7.5-.1zm3.3-2.4c1.7.1 3.4.9 4.6-.9-.4-1.5-1.5-1.4-2.5-1.4-.8 0-1.5.2-2.4.3.2.8.2 1.3.3 2zm-.5-5.3c1.7.9 3 1.1 4.3-.1-1.8-1.4-2.2-1.4-4.3.1zM179.5 34.002c.1-1.8.2-3.6.3-5.7.9-.1 1.7-.1 2.7-.1.1.8.3 1.4.3 2v8.9h-3.6c-1.3-1.9-2.6-3.8-4.2-6.1-1 2.1 0 4.2-.9 6.1h-2.8c-.3-3.6-.1-7-.1-10.8 1.2-.1 2.3-.1 3.4-.2 1.5 2.1 2.9 4.1 4.2 6.1.3-.1.5-.1.7-.2zm-49.699 2.4c.6.8 1.8 1.3.9 2.9-2.9.3-6 .4-9.2-.2-2.4-.5-3.9-2.4-4.1-4.9-.1-2.3.7-4.3 2.9-5.5.5-.3 1.1-.5 1.6-.7 5.1-1.3 10.1 2.4 7.9 8.4zm-2.6-2.3c.1-2.1-1.1-3.6-3.1-3.7-1.8-.1-3.1 1.2-3.2 3.2-.1 2.1 1.1 3.6 3 3.7 1.8 0 3.1-1.3 3.3-3.2zM75.002 33.6c-.3.9-.5 1.8-.8 2.8.4.9 2.2 1.1 1.1 2.9-2.9.3-5.9.4-9 0-2.7-.4-4.2-2.3-4.4-4.9-.2-2.9 1.2-5.2 3.8-6.1 4.4-1.6 8 .4 9.3 5.3zm-3.5.2c0-2-1.2-3.4-3-3.4-2 0-3.3 1.4-3.3 3.4 0 1.9 1.3 3.3 3 3.4 1.9.1 3.3-1.3 3.3-3.4zM99.5 17.502v-10.7c2.8-.5 5.5-.6 8.1.2 2.4.7 3.7 2.6 3.6 5.2 0 2.6-1.3 4.4-3.7 5.1-2.5.7-5.1.4-8 .2zm7.8-3.1c1-1.5 1.1-3.2-.2-4.6-1.1-1.3-2.6-1.2-4.2-.6v6c1.7.4 3.1.3 4.4-.8zM79.002 17.4c-.6.1-1 .2-1.4.2-.4 0-.8-.1-1.5-.2-.2-3.4-.1-6.9-.1-10.6 3.1-.5 6.1-.7 9 .2 2.5.7 2.9 3.1 1.3 5.2-.2.2-.4.4-.6.7.8 1.4 1.5 2.7 2.3 4.2-1.1.8-2 .7-3 .2-.6-1-1.3-2.1-2.2-3.4-.9-.1-1.8-.2-3-.3-.3 1.3-.5 2.5-.8 3.8zm.6-6.2c1.8.3 3.1.5 4.6-.8-.3-.5-.6-1.4-1-1.5-1.1-.2-2.3-.1-3.6-.1v2.4zM128.4 6.603c3.3-.3 6.6-.2 10.1 0 .1.7.2 1.3.3 1.9-1.3.8-2.6.3-3.9.4-1.2.1-2.6-.4-3.7.8.6 1.2 1.7.9 2.6 1h2.8c.1.8.2 1.4.4 2.3-2 .2-3.8.3-6.2.5.8.8 1.1 1.4 1.4 1.5 1 .2 2 .1 3 .1h3.4c.1.9.1 1.4.2 1.9-.9.8-5.7 1-10.1.4-.7-1.8-.9-7.2-.3-10.8zm-3.398 3.199c-1.6.9-2.6 0-3.8-.6-2.4-1.4-4.7-.1-4.9 2.6-.1 1.4.5 2.8 1.5 3.3 1.2.6 2.5.2 3.9-1-.2-.9-2.5-.4-1.5-2.4h4.8c.7 3-.9 5.2-4.1 6-3.3.8-6.8-1.1-7.6-4.1-.9-3.2.7-6 3.8-7.1 2-.7 3.9-.4 5.8.4 1.1.6 2 1.4 2.1 2.9zM81.2 28.203h4c1.6 3.6 3.2 7.1 4.8 10.5-.3.2-.4.4-.6.4h-2.2c-.3-.3-.6-.7-.9-1-.3-.3-.5-.6-.8-.9h-4.6c-.5.5-1 1.1-1.6 1.9h-2.9c1.6-3.8 3.2-7.3 4.8-10.9zm.5 6.2h2.6c-.1-1.2-.2-2-1.3-2.8-.4.9-.8 1.6-1.3 2.8zm15.8-3.6c-2.4-.1-4.3-.2-6.3-.4v-2.2h10.401c.7 1.4.2 2.3-.6 3.1l-3.3 3c-.5.5-1 1.1-1.9 2.2 2.4.2 4.2.3 6.2.5.1.7.1 1.2.2 2.1-3.7.2-7.2.1-10.6.1-.9-1.7-.2-2.7.8-3.6 1.5-1.5 3.1-2.9 5.1-4.8zm19.2 8.297c-1.3.1-2.2.1-3 .1-.6-.7-1.1-1.3-1.6-2h-4.6c-.5.5-1.1 1.2-1.8 1.9-.7 0-1.6-.1-2.8-.2 1.7-3.8 3.3-7.3 4.9-10.9h4c1.5 3.6 3.1 7.1 4.9 11.1zm-8.5-4.8h2.7c-.1-1.2-.3-2.1-1.4-2.8-.5 1-.8 1.7-1.3 2.8zm32.7 1.8c-1.2-1.5-2.6-1.2-3.8-1.6-1-.4-2.1-.5-3.1-1.1-1.4-.8-1.6-2.4-.7-3.6 1.4-2 3.6-2.1 5.7-1.9 2 .2 4 .5 4.6 3-1 1-2 .6-3 .2-1-.4-2.1-.6-3.1-.7-.4 0-.8.4-1.3.7.9 1.5 2.3 1.4 3.5 1.5 1.9.2 3.5.7 4.3 2.6-.5 2.8-1 3.5-3.4 3.8-1.7.2-3.6.1-5.3-.2-1.3-.2-2.4-.9-2.8-2.6 1.2-1 2.3-.7 3.5 0 1.5 1.2 3.1 1.2 4.9-.1zm19.701-7.897h4.1c1.5 3.4 3.1 6.9 4.6 10.3-.2.3-.2.5-.2.5-.8.1-1.5.2-2.3.4-.7-.8-1.2-1.4-1.8-2.1h-4.6c-.5.5-1 1.1-1.6 1.8h-2.6c.1-.6.1-1 .2-1.3 1.4-3.2 2.8-6.3 4.2-9.6zm2.4 3.5c-.2 0-.4-.1-.6-.1-.3.8-.6 1.7-1 2.9 1.1-.1 1.8-.1 2.8-.2-.6-1-.9-1.8-1.2-2.6zm-73.199-14.1c-.1-.8-.1-1.2-.2-1.7.6-.4 1.2-.9 1.9-1.4v-4.9c-.5-.4-1.1-.7-1.7-1.2v-1.7c2.4-.3 4.6-.4 6.8.1 0 1.6 0 1.6-1.6 2.9v4.6c1.6 1.3 1.6 1.3 1.7 2.9-2.2.9-4.5.4-6.9.4zm66.3 12.794c-1.4.2-2.5.4-3.8.6v8c-1.1.1-1.9.2-3.1.3v-8.3c-1.4-.2-2.4-.3-3.8-.5-.1-.6-.2-1.3-.3-2.2h10.8c.1.6.1 1.2.2 2.1zm-105 11.203c0-12.2-.1-24.3.4-36.6.1.2.4.5.4.7v35.8c-.2.1-.5.1-.8.1z"/></g><defs><clipPath id="clip0_3885_25380"><path fill="#fff" d="M0 0h182.9v46.6H0z"/></clipPath></defs></svg>