<svg width="12" height="12" fill="none" xmlns="http://www.w3.org/2000/svg"><g clip-path="url(#clip0_3885_25411)" fill="#0095FF"><path d="M7.955 6.064l4.046 2.557V3.398L7.955 6.064zM0 3.398v5.223l4.045-2.557L0 3.398zm11.25-1.523H.75a.74.74 0 00-.727.638l5.978 3.939 5.977-3.939a.74.74 0 00-.727-.638zM7.267 6.516l-1.061.7a.375.375 0 01-.413 0l-1.061-.7L.023 9.494a.74.74 0 00.726.633h10.5a.74.74 0 00.726-.633L7.267 6.516z"/></g><defs><clipPath id="clip0_3885_25411"><path fill="#fff" d="M0 0h12v12H0z"/></clipPath></defs></svg>