<svg width="25" height="24" fill="none" xmlns="http://www.w3.org/2000/svg"><g clip-path="url(#clip0_3901_36330)"><g clip-path="url(#clip1_3901_36330)" fill="#0095FF"><path d="M10.209 19.472c-1.476 0-2.932-.346-4.327-1.029a.786.786 0 00-.352-.075.725.725 0 00-.186.02c-.973.246-1.957.512-2.911.763l-.964.256c-.105.03-.206.04-.301.04-.226 0-.402-.075-.517-.226-.13-.17-.16-.427-.085-.718.346-1.3.687-2.575 1.034-3.845a.763.763 0 00-.06-.592 9.635 9.635 0 01-.598-7.209A9.67 9.67 0 015.5 1.235 9.67 9.67 0 0110.209 0a9.85 9.85 0 016.139 2.164 9.5 9.5 0 013.439 5.767c.075.412.115.834.16 1.245l.06.583a9.886 9.886 0 01-2.434 6.385 9.765 9.765 0 01-5.999 3.238 10.5 10.5 0 01-1.365.09zM5.68 16.967c.17 0 .331.045.502.14a8.324 8.324 0 004.036 1.045c.467 0 .954-.04 1.435-.116 2.174-.341 4.172-1.6 5.477-3.453 1.305-1.853 1.827-4.157 1.42-6.315-.757-4.107-4.17-6.973-8.297-6.973-.477 0-.959.04-1.436.12-3.96.653-6.972 4.177-7.003 8.198-.01 1.496.342 2.896 1.05 4.162.155.28.19.537.105.833-.13.452-.251.918-.371 1.365-.036.14-.076.281-.11.427-.076.291-.151.582-.232.878l-.15.583.16-.035c.045-.01.086-.02.12-.026.071-.015.131-.025.186-.045.246-.065.487-.13.733-.19.683-.181 1.386-.367 2.079-.558.1-.025.2-.04.296-.04z"/><path d="M15.52 24a8.892 8.892 0 01-5.824-2.148c-.24-.211-.326-.447-.25-.723.07-.256.245-.412.522-.467a.824.824 0 01.11-.01c.16 0 .316.065.492.216a7.634 7.634 0 003.559 1.691c.482.086.959.13 1.426.13a7.44 7.44 0 003.569-.918c.21-.11.401-.166.597-.166.12 0 .241.02.377.06.572.166 1.164.322 1.732.468.22.06.446.115.667.175.045.01.085.02.14.03.03.005.06.01.101.02l.16.036-.04-.156c-.07-.266-.14-.527-.205-.788a69.624 69.624 0 00-.502-1.847c-.1-.347-.066-.633.105-.954a7.595 7.595 0 00-.728-8.363c-.13-.166-.21-.306-.24-.437a.627.627 0 01.34-.703.693.693 0 01.297-.07c.2 0 .386.095.532.266a8.718 8.718 0 011.5 2.635c.834 2.385.699 4.76-.4 7.058a.775.775 0 00-.05.487c.185.708.376 1.43.561 2.129.13.492.271 1.004.402 1.506a.69.69 0 01-.09.572.608.608 0 01-.447.266c-.02 0-.045.005-.065.005-.116 0-.246-.03-.367-.06-1.019-.271-2.224-.588-3.408-.914a.815.815 0 00-.236-.035.888.888 0 00-.402.105A9.063 9.063 0 0115.52 24zm-2.611-13.599H6.534a.757.757 0 01-.558-.216.65.65 0 01-.175-.457c.01-.371.29-.637.688-.637.486 0 1.003-.005 1.686-.005h5.783c.397 0 .683.24.703.597a.664.664 0 01-.17.497.696.696 0 01-.518.211c-.311.01-.647.01-1.064.01zm.085-3.017h-6.45c-.256 0-.467-.09-.603-.246a.635.635 0 01-.13-.522.634.634 0 01.552-.532c.075-.01.15-.01.21-.01h7.326c.442 0 .738.226.768.587a.65.65 0 01-.16.502.779.779 0 01-.563.226c-.281-.01-.582-.005-.949-.005zM7.06 13.423h-.57c-.402-.005-.693-.28-.693-.657s.296-.648.703-.653h2.93c.407 0 .703.276.708.648.005.376-.296.652-.718.662H7.061z"/></g></g><defs><clipPath id="clip0_3901_36330"><path fill="#fff" transform="translate(.5)" d="M0 0h24v24H0z"/></clipPath><clipPath id="clip1_3901_36330"><path fill="#fff" transform="translate(.505)" d="M0 0h23.99v24H0z"/></clipPath></defs></svg>