<svg width="24" height="24" fill="none" xmlns="http://www.w3.org/2000/svg"><g clip-path="url(#clip0_3908_1639)" fill="#000"><path d="M9.654 24H6.3c-.756 0-1.44-.27-1.922-.751-.487-.482-.751-1.162-.756-1.918v-.624l-.09-.004c-.468-.014-.827-.132-1.124-.364-.44-.345-.666-.822-.666-1.407-.01-1.989-.01-3.959-.01-5.805 0-1.092.822-1.72 1.592-1.753.047 0 .095-.01.142-.024l.07-.014.081-.014v-8.7C3.622 1.379 4.425.354 5.615.076c.194-.048.416-.071.657-.071C7.92 0 9.597 0 11.222 0h4.398c.774 0 1.412.26 1.946.798l3.023 3.023c.533.534.793 1.162.788 1.927v5.584l.08.01c.057.008.11.013.161.018.109.014.218.024.317.047.822.208 1.318.841 1.322 1.696.01 1.644.005 3.32.005 4.936v.897c0 1.006-.727 1.734-1.762 1.772l-.085.005-.005.084c-.009.133-.018.27-.023.397-.014.279-.024.544-.08.803-.265 1.195-1.295 1.998-2.565 1.998h-3.845c-.874.005-4.37.005-5.243.005zm9.036-1.233c.052 0 .113 0 .174-.005.7-.042 1.238-.58 1.28-1.27.01-.151.005-.303.005-.463v-.317H4.85v.487c0 1.04.53 1.568 1.57 1.568h12.27zm2.697-3.302c.496 0 .647-.15.647-.656v-5.574c0-.491-.156-.647-.633-.647H3.598c-.482 0-.633.156-.637.647v5.55c0 .534.141.68.67.68h17.756zM6.376 1.233c-.983 0-1.526.538-1.526 1.516v8.592h15.29V5.715l-.066-.018c-.01-.005-.015-.005-.024-.01-.019-.005-.038-.014-.066-.014h-1.01c-.506 0-1.012 0-1.517-.005-.987 0-1.601-.614-1.601-1.601V1.233h-9.48zm10.708 1.11V4.1c0 .113.028.198.085.26.056.056.142.085.26.085h.009c.151 0 .317-.005.52-.005h1.45l-2.324-2.329v.232z"/><path d="M12.238 18.62c-.222 0-.454-.005-.676-.01l-.141-.004c-.265-.005-.36-.104-.36-.383v-4.341c0-.293.071-.378.322-.382h.118c.17 0 .34-.005.51-.005.387 0 .845.01 1.308.07.657.09 1.077.572 1.1 1.267.03.826.03 1.639 0 2.423-.027.774-.552 1.275-1.407 1.341a12.19 12.19 0 01-.774.024zm-.208-.808h.619c.6 0 .836-.231.845-.827a63.17 63.17 0 000-1.686v-.16a1.5 1.5 0 00-.047-.373c-.061-.26-.236-.426-.482-.454a5.82 5.82 0 00-.58-.033c-.086-.005-.17-.005-.26-.01l-.095-.004v3.547zm-4.639.798c-.387 0-.467-.155-.467-.392v-4.364c0-.302.09-.354.264-.354h.676c.43 0 .935.01 1.431.066.576.07.95.453 1.049 1.082.075.486.099 1.043-.288 1.516-.256.311-.624.482-1.12.51a7.33 7.33 0 01-.354.01c-.095 0-.194 0-.293-.005-.104 0-.208-.005-.321-.005h-.095v1.53c0 .246-.08.402-.472.402l-.01.005zM7.883 16h.094c.085 0 .17 0 .255.004.085 0 .166.005.25.005a6.6 6.6 0 00.331-.01c.298-.018.506-.184.543-.425a2.507 2.507 0 00-.004-.84c-.029-.161-.222-.355-.388-.388a5.06 5.06 0 00-.708-.061c-.09-.005-.184-.005-.279-.014l-.099-.005v1.733h.005zm7.949 2.634a.701.701 0 01-.335-.09c-.123-.066-.146-.165-.146-.335v-4.27c0-.364.085-.449.458-.458.198-.005.415-.005.68-.005h1.417c.113 0 .203 0 .293.005.236.005.34.132.34.406-.005.274-.104.397-.345.397h-1.87V15.7h.689c.147 0 .27 0 .383.005.127 0 .227.042.283.113.062.07.085.18.066.307-.028.194-.122.27-.326.274h-1.105v1.696c-.01.32-.194.538-.482.538z"/></g><defs><clipPath id="clip0_3908_1639"><path fill="#fff" transform="translate(1.732)" d="M0 0h21.534v24H0z"/></clipPath></defs></svg>