<svg width="24" height="24" fill="none" xmlns="http://www.w3.org/2000/svg"><g clip-path="url(#clip0_3908_1662)"><g clip-path="url(#clip1_3908_1662)" fill="#000"><path d="M12.027 23.977h-1.07c-.892-.005-1.525-.553-1.645-1.442a41.43 41.43 0 01-.196-1.594c-.014-.126-.05-.172-.172-.219-.376-.14-.74-.297-1.014-.418a.226.226 0 00-.093-.028c-.023 0-.05.005-.102.046-.423.34-.86.68-1.302 1.014-.33.251-.674.377-1.023.377-.418 0-.823-.187-1.172-.53l-.214-.214-1.25-1.251c-.624-.628-.68-1.455-.145-2.157.326-.433.67-.87 1.014-1.302.06-.08.07-.121.028-.214a14.028 14.028 0 01-.428-1.032c-.037-.098-.074-.13-.167-.14-.237-.028-.484-.06-.716-.088a50.384 50.384 0 00-.875-.107C.602 14.58.007 13.925.002 13.046c-.005-.66 0-1.311 0-2.092 0-.916.567-1.553 1.479-1.66l.665-.084c.302-.037.614-.079.925-.111.098-.01.135-.042.168-.135.13-.344.274-.693.427-1.032.042-.093.042-.135-.023-.214-.353-.442-.688-.879-1-1.283-.558-.726-.502-1.549.14-2.195.376-.381.767-.767 1.14-1.139l.371-.372c.307-.307.679-.46 1.098-.46h.032c.349 0 .679.116.981.349.116.093.237.18.354.274l.948.74c.065.05.103.06.13.06a.28.28 0 00.103-.028c.325-.15.665-.293 1.013-.419.107-.037.145-.083.159-.204l.023-.205a29.09 29.09 0 01.2-1.525c.13-.776.758-1.302 1.562-1.306.293 0 .605-.005.963-.005h1.176c.893 0 1.526.553 1.646 1.441.084.61.144 1.116.196 1.595.014.126.05.172.172.219.381.139.707.274.995.409a.23.23 0 00.111.032c.042 0 .08-.018.14-.065.423-.34.85-.67 1.265-.986.32-.246.674-.376 1.027-.376.414 0 .814.177 1.154.511.46.456.944.94 1.478 1.479.638.641.684 1.455.135 2.18-.39.512-.693.902-.986 1.265-.074.093-.083.144-.032.251.172.358.316.73.418 1.014.038.102.075.134.168.144.293.032.59.07.879.107.237.028.474.06.711.088.912.107 1.483.744 1.483 1.655.005.763.005 1.446 0 2.092-.004.856-.525 1.474-1.357 1.614-.563.093-1.13.158-1.665.214-.135.014-.186.055-.233.186a10.48 10.48 0 01-.413.99c-.042.093-.042.135.018.214.321.4.656.827 1.014 1.302.535.702.483 1.53-.14 2.162-.548.553-1.037 1.046-1.497 1.497-.335.33-.73.502-1.14.502-.348 0-.701-.13-1.022-.372-.414-.316-.86-.66-1.302-1.014-.051-.042-.084-.046-.102-.046a.277.277 0 00-.089.023c-.41.186-.744.325-1.056.437-.088.033-.12.07-.13.172l-.111.92-.084.675c-.107.893-.753 1.469-1.641 1.469-.335-.023-.68-.023-1.019-.023zm-4.269-4.998c.107 0 .219.028.345.083.502.228 1.041.46 1.595.665.334.121.502.33.539.684.065.604.144 1.218.223 1.813l.014.12c.047.34.181.456.53.456h1.976c.363 0 .493-.116.54-.474.088-.697.172-1.325.242-1.957.037-.321.195-.516.506-.628a20.99 20.99 0 001.577-.65.908.908 0 01.381-.098c.163 0 .321.06.48.19.427.344.873.688 1.301 1.018l.256.196c.125.097.223.14.316.14.102 0 .21-.061.34-.187l1.413-1.413c.275-.274.28-.414.042-.726a250.55 250.55 0 00-1.227-1.576c-.177-.223-.2-.46-.075-.744.28-.627.498-1.148.684-1.64.116-.303.306-.461.613-.498.572-.07 1.205-.144 1.981-.247.345-.041.465-.18.465-.525.005-.637.005-1.311 0-2 0-.348-.116-.478-.46-.525-.698-.093-1.349-.172-1.98-.246-.308-.037-.503-.19-.615-.493a26.606 26.606 0 00-.674-1.622c-.14-.303-.116-.544.074-.786.442-.558.884-1.13 1.256-1.614.19-.25.181-.409-.047-.636-.492-.498-.995-1-1.427-1.433-.144-.139-.251-.204-.354-.204-.097 0-.204.051-.353.167-.516.4-1.05.814-1.576 1.228a.664.664 0 01-.419.158.845.845 0 01-.344-.084 23.37 23.37 0 00-1.595-.665c-.335-.12-.498-.325-.535-.66-.07-.632-.153-1.26-.242-1.957-.041-.335-.18-.456-.53-.456h-1.976c-.363 0-.493.116-.54.474-.092.726-.171 1.33-.241 1.958-.037.32-.19.516-.507.632-.479.181-1 .395-1.641.683a.812.812 0 01-.326.08.664.664 0 01-.418-.159c-.512-.404-1.056-.823-1.614-1.255-.126-.098-.228-.144-.32-.144-.103 0-.21.06-.336.186-.493.493-.99.986-1.413 1.413-.275.275-.284.419-.042.726.088.116.177.227.265.344.302.395.618.8.935 1.195.204.255.227.511.083.822-.255.554-.47 1.06-.646 1.553-.126.344-.33.512-.674.549-.554.06-1.116.135-1.66.205l-.275.037c-.353.046-.465.176-.47.544v1.976c0 .348.117.479.46.525.591.08 1.275.168 1.959.242.33.037.525.195.646.52.218.596.474 1.177.674 1.619.13.288.103.53-.083.762-.377.479-.777.99-1.256 1.613-.19.252-.181.41.042.637l1.413 1.414c.154.153.266.218.372.218.098 0 .214-.055.372-.176.475-.368 1.023-.79 1.558-1.214a.697.697 0 01.423-.153z"/><path d="M11.972 17.035a5.054 5.054 0 01-3.59-1.534 4.958 4.958 0 01-1.437-3.561c.032-2.767 2.292-5.017 5.036-5.017h.046a5.073 5.073 0 013.595 1.534 4.973 4.973 0 011.437 3.562c-.037 2.766-2.293 5.016-5.036 5.016h-.051zm.027-8.927a3.876 3.876 0 00-3.868 3.86c0 1.036.4 2.013 1.13 2.742A3.848 3.848 0 0012 15.845h.009a3.877 3.877 0 003.86-3.873 3.874 3.874 0 00-3.87-3.864z"/></g></g><defs><clipPath id="clip0_3908_1662"><path fill="#fff" d="M0 0h24v24H0z"/></clipPath><clipPath id="clip1_3908_1662"><path fill="#fff" d="M0 0h24v24H0z"/></clipPath></defs></svg>