<svg width="24" height="24" fill="none" xmlns="http://www.w3.org/2000/svg"><g clip-path="url(#clip0_3908_1574)" fill="#2F2A2A" stroke="#2F2A2A" stroke-width=".1"><path d="M21.31 14.07c.665 1.214.96 2.531 1.096 3.89.07.712.099 1.434.09 2.15-.029 2.063-1.5 3.642-3.562 3.838m2.376-9.877l.044-.024c.67 1.221.966 2.546 1.102 3.908h0c.07.714.099 1.438.09 2.157-.03 2.087-1.52 3.687-3.607 3.886m2.37-9.927c-.74-1.35-1.831-2.202-3.378-2.432L4.08 23.272m17.23-9.201l.044-.024c-.747-1.362-1.852-2.225-3.415-2.457h0c-.588-.086-1.138-.044-1.64.332a7.928 7.928 0 01-.617.406l-.204.126c-.994.612-1.986.918-2.975.92-.99 0-1.981-.303-2.975-.915h0c-.135-.083-.267-.17-.4-.258l-.12-.079a7.709 7.709 0 00-.532-.325h0c-.22-.118-.483-.24-.74-.245h0a4.447 4.447 0 00-2.203.535h0c-1.096.588-1.763 1.546-2.211 2.65h0c-.758 1.877-.993 3.848-.814 5.856.1 1.122.652 2.025 1.572 2.68m14.859.725s0 0 0 0l-.005-.05m.005.05l-.005-.05m.005.05c-.288.028-.58.043-.867.043 0 0 0 0 0 0v-.05c.286 0 .576-.014.862-.043m-14.825-.717c-.91-.646-1.453-1.537-1.551-2.642-.178-2.001.056-3.964.81-5.834.445-1.096 1.106-2.043 2.188-2.624l-1.447 11.1zm0 0l-.03.041m.03-.04l-.03.04s0 0 0 0m14.802-.779h0c1.15-.133 1.988-.932 2.126-2.065.112-.935.028-1.877-.108-2.808h0c-.14-.971-.368-1.92-.838-2.79h0c-.551-1.024-1.348-1.685-2.545-1.754a.612.612 0 00-.3.069c-.205.12-.401.248-.6.377-.147.096-.295.192-.448.287h0c-.972.599-2.024.967-3.167 1.057m5.88 7.627l-5.884-7.677m5.884 7.677a5.84 5.84 0 01-.762.047H6.779c-.613 0-1.198-.094-1.72-.424h0c-.721-.454-1.074-1.136-1.093-1.96h0c-.042-1.641.094-3.264.728-4.8v-.001c.317-.773.747-1.474 1.496-1.906m12.69 9.044L4.648 15.336c.319-.778.755-1.49 1.519-1.93M13 14.866l-.004-.05m.004.05s0 0 0 0l-.004-.05m.004.05c-1.558.123-2.984-.307-4.294-1.137h0l-.31-.198a25.873 25.873 0 00-.618-.392h0a.471.471 0 00-.23-.072m5.448 1.749c-1.546.122-2.961-.305-4.264-1.13a63.715 63.715 0 01-.308-.197c-.205-.132-.41-.265-.62-.393a.52.52 0 00-.257-.08m0 .05h.001l-.001-.05m0 .05s0 0 0 0v-.05m0 .05a2.872 2.872 0 00-1.358.383m1.358-.432a2.922 2.922 0 00-1.382.389m0 0l.025.043s0 0 0 0m-.025-.043l.024.043s0 0 0 0"/><path d="M6.514 5.692h0c-.047 3.162 2.528 5.908 5.808 5.927 3.148.019 5.86-2.556 5.861-5.8.047-3.185-2.585-5.808-5.714-5.87h0C9.259-.106 6.57 2.512 6.514 5.693zm5.832-4.227a4.306 4.306 0 014.331 4.317 4.31 4.31 0 01-4.321 4.326A4.312 4.312 0 018.034 5.8a4.304 4.304 0 014.312-4.335z"/></g><defs><clipPath id="clip0_3908_1574"><path fill="#fff" transform="translate(2.501)" d="M0 0h19.998v24H0z"/></clipPath></defs></svg>