<svg width="24" height="24" fill="none" xmlns="http://www.w3.org/2000/svg"><g clip-path="url(#clip0_3908_1617)" fill="#000"><path d="M17.438 24c-2.033 0-3.71-.926-4.992-2.755-.076-.11-.142-.128-.274-.128-1.726 0-3.456.005-5.181.005H3.426c-1.025 0-1.829-.624-1.961-1.517-.062-.402-.02-.818.019-1.22.009-.08.014-.16.023-.236.09-1.03.185-2.075.28-3.082.042-.43.08-.86.117-1.29.152-1.654.308-3.308.459-4.963l.085-.959c.061-.685.128-1.399.194-2.098.052-.525.274-.719.822-.724H6.68V3.838A3.828 3.828 0 0110.54 0h.085c1.934.038 3.583 1.64 3.673 3.568.014.293.014.596.01.884v.586h3.214c.558 0 .79.213.837.79.104 1.181.217 2.386.326 3.549l.128 1.385c.01.108.018.222.033.33.028.28.056.563.07.847.005.094.029.118.128.15 2.354.686 3.83 2.222 4.387 4.562.378 1.583.057 3.294-.884 4.688-.936 1.39-2.392 2.325-3.99 2.571-.383.057-.76.09-1.12.09zm.08-10.785a4.745 4.745 0 00-4.736 4.721 4.704 4.704 0 001.385 3.351 4.707 4.707 0 003.351 1.394c2.6 0 4.723-2.117 4.732-4.726a4.694 4.694 0 00-1.375-3.35 4.716 4.716 0 00-3.357-1.39zM4.121 6.347c-.094 0-.156.015-.189.038-.042.033-.047.199-.052.307 0 .052-.004.11-.01.161l-.354 3.833-.217 2.35c-.095 1.044-.194 2.083-.289 3.128l-.052.576c-.07.785-.146 1.593-.212 2.387-.014.199.028.355.127.473.104.118.27.184.478.194h8.376c-.572-2.009-.269-3.838.908-5.426 1.187-1.612 2.85-2.448 4.945-2.49l-.501-5.498h-2.766v.563c0 .123 0 .25-.005.373-.023.378-.288.638-.652.638a.72.72 0 01-.142-.014c-.316-.061-.52-.326-.53-.7-.004-.217-.004-.43-.004-.656V6.38H8.007v.82c0 .462-.255.75-.662.75h-.01c-.392-.004-.652-.297-.652-.741v-.851h-2.24c-.052 0-.109-.005-.16-.005-.058 0-.11-.005-.162-.005zm8.86-1.323c0-.123 0-.241.004-.36.005-.33.005-.637-.005-.954a2.476 2.476 0 00-2.468-2.387c-.685 0-1.356.293-1.838.804-.705.742-.681 1.626-.657 2.561.004.11.004.223.004.331h4.96v.005z"/><path d="M16.88 20.002c-.165 0-.33-.076-.496-.223-.449-.41-.931-.85-1.513-1.389a.756.756 0 01-.264-.53.634.634 0 01.18-.458.622.622 0 01.463-.208c.18 0 .354.076.51.213.274.246.54.491.823.747l.293.27 1.494-1.428.274-.26c.208-.199.42-.402.633-.6a.753.753 0 01.525-.227c.17 0 .326.066.449.193a.63.63 0 01.194.459.73.73 0 01-.255.53c-.899.864-1.811 1.738-2.799 2.674-.17.156-.34.237-.51.237z"/></g><defs><clipPath id="clip0_3908_1617"><path fill="#fff" transform="translate(1.434)" d="M0 0h22.133v24H0z"/></clipPath></defs></svg>