<svg width="24" height="24" fill="none" xmlns="http://www.w3.org/2000/svg"><path d="M12.006 2.72a7.686 7.686 0 012.39-1.298c4.378-1.429 8.994 1.477 9.543 6.05.287 2.395-.442 4.508-2.118 6.243-1.774 1.832-3.596 3.62-5.399 5.422-1.064 1.064-2.128 2.133-3.192 3.197-.763.763-1.676.768-2.434.005-2.891-2.886-5.792-5.757-8.649-8.673C-.36 11.111-.715 7.092 1.311 4.23 2.905 1.976 5.135.936 7.9 1.092c1.53.087 2.886.665 4.106 1.627zm-.02 2.166c-.005-.005-.02-.01-.034-.02-.136-.135-.277-.271-.413-.412C10.086 3 8.342 2.433 6.311 2.754c-2.57.407-4.64 2.769-4.708 5.368-.049 1.808.578 3.343 1.846 4.616 2.784 2.79 5.573 5.578 8.357 8.367.064.063.127.117.2.19.447-.447.874-.88 1.302-1.307 2.463-2.469 4.951-4.918 7.39-7.415 1.375-1.409 1.939-3.153 1.633-5.102-.656-4.183-5.5-6.21-8.97-3.765-.486.34-.908.772-1.375 1.18z" fill="#000"/></svg>