<svg width="20" height="20" fill="none" xmlns="http://www.w3.org/2000/svg"><g clip-path="url(#clip0_3901_36316)" fill="#000"><path d="M8.128 20H5.334c-.63 0-1.2-.224-1.602-.626-.406-.401-.626-.968-.63-1.598v-.52l-.075-.003c-.39-.012-.689-.11-.937-.304-.366-.287-.555-.684-.555-1.173-.008-1.657-.008-3.298-.008-4.837 0-.91.685-1.433 1.327-1.46a.4.4 0 00.118-.02l.059-.012.067-.012v-7.25C3.102 1.149 3.77.295 4.763.063c.161-.04.346-.06.547-.06C6.684 0 8.081 0 9.435 0H13.1c.645 0 1.177.216 1.622.665l2.519 2.52c.445.444.661.968.657 1.605v4.653l.067.008c.047.008.09.012.134.016.09.011.181.02.264.039.684.173 1.098.7 1.102 1.413.008 1.37.004 2.767.004 4.114v.747c0 .839-.607 1.445-1.469 1.476l-.07.004-.004.071c-.008.11-.016.225-.02.33-.012.233-.02.453-.067.67-.22.996-1.078 1.665-2.137 1.665h-3.204C11.769 20 8.857 20 8.128 20zm7.53-1.027c.044 0 .095 0 .146-.004a1.124 1.124 0 001.067-1.06c.008-.125.004-.251.004-.385v-.264H4.125v.406c0 .866.441 1.307 1.307 1.307h10.226zm2.248-2.752c.413 0 .54-.126.54-.547V11.03c0-.409-.13-.539-.528-.539H3.082c-.401 0-.527.13-.531.54v4.624c0 .445.118.567.559.567h14.796zM5.396 1.027c-.818 0-1.27.45-1.27 1.264v7.16h12.74V4.763l-.054-.016-.02-.008c-.016-.004-.031-.012-.055-.012h-.842c-.422 0-.843 0-1.264-.004-.823 0-1.334-.511-1.334-1.334V1.027h-7.9zm8.924.925v1.465c0 .094.024.165.071.216.047.047.118.071.216.071h.008c.126 0 .264-.004.433-.004h1.209L14.32 1.76v.192z"/><path d="M10.282 15.517c-.185 0-.378-.004-.563-.008l-.118-.004c-.22-.004-.3-.087-.3-.319v-3.617c0-.244.06-.315.268-.32h.099c.142 0 .283-.003.425-.003.323 0 .704.008 1.09.059.547.075.898.476.917 1.055a28.8 28.8 0 010 2.02c-.023.645-.46 1.062-1.173 1.117-.188.012-.397.02-.645.02zm-.173-.673h.515c.5 0 .697-.193.705-.69.008-.468.004-.944 0-1.405v-.133a1.25 1.25 0 00-.04-.311c-.05-.217-.196-.355-.4-.378a4.835 4.835 0 00-.485-.028c-.07-.004-.142-.004-.217-.008l-.078-.004v2.957zm-3.866.665c-.323 0-.39-.13-.39-.327v-3.637c0-.252.075-.295.22-.295h.564c.358 0 .78.008 1.193.055.48.059.79.378.873.901.063.406.083.87-.24 1.264-.212.26-.52.401-.933.425a6.242 6.242 0 01-.295.008c-.079 0-.161 0-.244-.004-.087 0-.173-.004-.268-.004h-.078v1.275c0 .205-.067.335-.394.335l-.008.004zm.41-2.177h.078c.071 0 .142 0 .213.004.07 0 .138.004.208.004.107 0 .193-.004.276-.008.248-.016.421-.154.453-.354a2.09 2.09 0 00-.004-.7.476.476 0 00-.323-.324 4.156 4.156 0 00-.59-.05c-.075-.005-.154-.005-.233-.013l-.082-.004v1.445h.004zm6.624 2.196a.585.585 0 01-.279-.074c-.102-.056-.122-.138-.122-.28v-3.558c0-.303.07-.374.382-.382.165-.004.346-.004.567-.004h1.18c.095 0 .17 0 .244.004.197.004.284.11.284.338-.004.229-.087.331-.287.331h-1.56v1.18h.577c.122 0 .224 0 .318.005.107 0 .19.035.236.094.052.06.071.15.056.256-.024.162-.103.225-.272.228h-.922v1.414c-.008.267-.161.448-.402.448z"/></g><defs><clipPath id="clip0_3901_36316"><path fill="#fff" transform="translate(1.527)" d="M0 0h17.945v20H0z"/></clipPath></defs></svg>