<svg width="20" height="20" fill="none" xmlns="http://www.w3.org/2000/svg"><g clip-path="url(#clip0_3904_1842)"><path d="M19.756 18.578l-5.688-5.687a7.878 7.878 0 001.765-4.973C15.833 3.553 12.281 0 7.917 0 3.552.001 0 3.553 0 7.918s3.552 7.916 7.917 7.916a7.878 7.878 0 004.973-1.765l5.687 5.688a.83.83 0 001.179 0 .832.832 0 000-1.179zm-11.84-4.41a6.256 6.256 0 01-6.25-6.25 6.256 6.256 0 016.25-6.25 6.256 6.256 0 016.25 6.25 6.256 6.256 0 01-6.25 6.25z" fill="#000"/></g><defs><clipPath id="clip0_3904_1842"><path fill="#fff" d="M0 0h20v20H0z"/></clipPath></defs></svg>