<svg width="24" height="24" fill="none" xmlns="http://www.w3.org/2000/svg"><g clip-path="url(#clip0_3901_36279)"><g clip-path="url(#clip1_3901_36279)" fill="#000"><path d="M.798 24a.633.633 0 01-.65-.584.98.98 0 01.08-.422c.565-1.538 1.167-3.183 1.774-4.796.056-.153.047-.255-.041-.412C-.333 13.763-.417 9.75 1.706 5.848 3.212 3.082 5.552 1.26 8.657.431A12.87 12.87 0 0111.882 0c2.35 0 4.602.732 6.697 2.169 2.641 1.816 4.319 4.305 4.99 7.4.58 2.674.27 5.339-.908 7.707-1.163 2.345-3.049 4.175-5.459 5.301a11.593 11.593 0 01-4.75 1.061c-2.312-.013-4.337-.55-6.19-1.64a.534.534 0 00-.283-.093.593.593 0 00-.246.06c-1.409.612-2.845 1.22-4.231 1.808l-.366.157a.903.903 0 01-.338.07zm5.227-3.508c.222 0 .445.07.695.222 1.798 1.076 3.66 1.622 5.529 1.622 1.237 0 2.506-.24 3.767-.713 4.245-1.594 6.835-5.77 6.441-10.385-.213-2.517-1.242-4.746-3.053-6.622-2.002-2.077-4.787-3.267-7.642-3.267-1.47 0-2.887.305-4.217.912-3.536 1.613-5.538 4.435-5.946 8.393-.245 2.373.334 4.648 1.715 6.766.18.278.208.546.093.848-.214.56-.427 1.13-.626 1.682l-.195.528c-.148.399-.296.797-.45 1.219l-.152.412c.042-.014.074-.028.107-.041.315-.135.634-.265.95-.399a91.398 91.398 0 002.432-1.043c.2-.092.38-.134.552-.134z"/><path d="M15.422 18.736c-1.414-.107-2.794-.584-4.213-1.45-2.187-1.34-3.883-3.161-5.032-5.409a8.798 8.798 0 01-.94-3.142c-.084-.839.101-1.57.56-2.233.56-.811 1.219-1.367 2.016-1.696.204-.084.408-.13.607-.13.482 0 .899.245 1.177.69.403.644.88 1.409 1.32 2.183.524.917.436 1.436-.365 2.146a14.04 14.04 0 01-.756.625c-.116.088-.13.162-.065.306.283.63.705 1.15 1.085 1.57.713.803 1.385 1.382 2.113 1.818.24.143.398.24.5.24.102 0 .2-.11.431-.393l.01-.014c.185-.227.407-.487.648-.732.27-.274.575-.408.904-.408.185 0 .38.046.58.13.166.074.36.162.546.273.64.385 1.33.802 2.016 1.232.64.404.871 1.085.584 1.738-.58 1.321-1.52 2.178-2.808 2.55-.204.06-.418.073-.626.087-.093.005-.19.014-.278.023h-.01l-.004-.004zM6.515 8.356c.088.903.32 1.75.714 2.594.96 2.044 2.419 3.717 4.337 4.973 1.293.848 2.461 1.302 3.675 1.432.065.004.13.009.2.009 1.01 0 2.126-.774 2.437-1.692.037-.115.023-.166-.07-.222-.333-.2-.671-.403-.996-.602-.352-.214-.718-.436-1.08-.654-.115-.07-.204-.116-.245-.116-.046 0-.107.07-.213.19-.112.125-.223.26-.33.385-.17.204-.352.412-.532.612-.227.245-.5.37-.811.37a1.27 1.27 0 01-.362-.055 3.886 3.886 0 01-.667-.246c-.964-.491-1.858-1.228-2.818-2.317-.468-.533-.987-1.181-1.292-1.974-.292-.76-.19-1.172.417-1.705.134-.12.278-.232.412-.343.093-.074.19-.153.283-.232.167-.144.268-.227.282-.292.014-.065-.05-.171-.162-.361a77.76 77.76 0 00-.741-1.224c-.14-.227-.274-.45-.413-.676-.092-.153-.13-.181-.171-.181a.472.472 0 00-.19.074c-.654.357-1.136.839-1.423 1.427-.083.172-.13.362-.176.561a5.474 5.474 0 01-.065.264z"/></g></g><defs><clipPath id="clip0_3901_36279"><path fill="#fff" d="M0 0h24v24H0z"/></clipPath><clipPath id="clip1_3901_36279"><path fill="#fff" transform="translate(.148)" d="M0 0h23.703v24H0z"/></clipPath></defs></svg>