<svg width="24" height="24" fill="none" xmlns="http://www.w3.org/2000/svg"><g clip-path="url(#clip0_3901_36277)"><g clip-path="url(#clip1_3901_36277)"><path d="M11.99 20.448H2.213c-.732 0-1.344-.26-1.794-.848-.308-.402-.432-.867-.432-1.37V9.444c0-1.23-.004-2.466 0-3.697.004-.901.402-1.57 1.205-1.986.304-.15.63-.21.965-.21 6.561 0 13.123-.004 19.689 0 1.25 0 2.166.927 2.17 2.177.003 4.178.003 8.36 0 12.538 0 1.044-.628 1.854-1.63 2.113-.203.053-.42.06-.634.06-3.255.008-6.506.008-9.76.008zM2.43 4.978c.049.057.071.09.101.117 2.643 2.627 5.282 5.263 7.936 7.883.221.218.503.409.788.518.863.326 1.64.12 2.286-.522 2.643-2.62 5.278-5.248 7.917-7.872.034-.033.056-.071.098-.12-6.378-.004-12.737-.004-19.126-.004zm13.097 7.989c-.353.36-.66.686-.98 1.002-1.441 1.423-3.52 1.456-5.007.079-.312-.29-.605-.597-.909-.898-.049-.048-.097-.09-.173-.16-1.993 2.026-3.971 4.046-5.916 6.028h18.923c-1.951-1.986-3.926-4.002-5.938-6.051zM1.457 5.996c-.014.007-.026.018-.04.026v11.96c.014.011.033.018.048.03 1.982-2.02 3.964-4.036 5.901-6.014-1.944-1.978-3.926-3.99-5.908-6.002zm15.117 6.055l6.01 5.972V6.014l-.045-.022a8577.93 8577.93 0 01-5.965 6.059z" fill="#000"/></g></g><defs><clipPath id="clip0_3901_36277"><path fill="#fff" d="M0 0h24v24H0z"/></clipPath><clipPath id="clip1_3901_36277"><path fill="#fff" transform="translate(-.014 3.552)" d="M0 0h24.028v16.896H0z"/></clipPath></defs></svg>