<svg width="24" height="24" fill="none" xmlns="http://www.w3.org/2000/svg"><g clip-path="url(#clip0_3901_36278)"><g clip-path="url(#clip1_3901_36278)"><path d="M18.852 22.128a1.67 1.67 0 01-.96-.31c-.404-.283-.796-.6-1.178-.902-.079-.064-.158-.125-.234-.189l-1.79-1.439-.811-.657c-.023-.019-.05-.037-.076-.056a.335.335 0 00-.05-.034l-.048-.038-.62.57c-.468.43-.928.857-1.393 1.284-.072.068-.143.136-.219.204a8.95 8.95 0 01-.608.536c-.404.313-.812.472-1.22.472-.264 0-.532-.068-.8-.2-.446-.219-.77-.604-.96-1.14l-1.219-3.47c-.158-.457-.32-.914-.48-1.371-.052-.148-.105-.295-.154-.442a50.615 50.615 0 01-.393-1.14.44.44 0 00-.328-.314 53.3 53.3 0 00-.756-.211 162.947 162.947 0 01-3.247-.937 2.738 2.738 0 01-.903-.468c-.256-.212-.4-.48-.411-.767-.011-.29.117-.57.355-.789.226-.207.517-.385.82-.506 1.495-.585 3.02-1.163 4.497-1.726.52-.196 1.038-.396 1.559-.592l3.255-1.243a9026.39 9026.39 0 0110.384-3.96l.114-.046c.388-.147.789-.302 1.197-.385.117-.023.234-.038.347-.038.412 0 .793.155 1.065.434a1.5 1.5 0 01.419 1.1c-.008.46-.106.928-.196 1.385l-.046.219c-.336 1.684-.683 3.395-1.02 5.049-.124.623-.252 1.242-.377 1.865l-.366 1.805c-.26 1.291-.521 2.579-.786 3.87-.06.291-.117.578-.173.869a61.693 61.693 0 01-.469 2.231c-.184.797-.645 1.28-1.37 1.435a1.59 1.59 0 01-.351.042zm-.435-16.033a.615.615 0 01.623.638c-.003.177-.079.328-.249.513-2.216 2.353-4.433 4.71-6.65 7.066l-.464.494c-.038.038-.072.08-.11.121a.962.962 0 01-.06.064l-.053.06.442.355c.25.2.495.4.74.597l.94.76c1.549 1.245 3.146 2.533 4.72 3.798.129.102.265.185.4.245.076.034.148.05.208.05.151 0 .272-.091.355-.265a1.7 1.7 0 00.136-.412c.22-1.083.438-2.17.657-3.258.182-.891.36-1.786.54-2.678.291-1.438.586-2.877.876-4.32.393-1.929.786-3.862 1.175-5.792.041-.215.09-.468.105-.717.008-.114-.015-.197-.067-.253-.046-.05-.11-.072-.193-.072a.638.638 0 00-.113.011 2.629 2.629 0 00-.393.117c-1.374.525-2.745 1.046-4.116 1.571l-1.979.755-5.679 2.168-7.235 2.76-.853.329-.442.17.015.15.045.016c.02.007.038.011.053.019.038.015.08.03.121.041l.65.185c1.053.302 2.14.612 3.213.914a.557.557 0 00.389-.038c2.858-1.454 5.758-2.938 8.568-4.369l1.212-.619c.215-.11.434-.223.65-.332.49-.253.996-.514 1.499-.763a.723.723 0 01.324-.08zM9.963 20.002l.147.083 2.602-2.398-1.817-1.461-.932 3.776zm5.03-10.766a.54.54 0 00-.254.072l-1.612.823c-1.998 1.02-4.063 2.077-6.095 3.108-.18.09-.185.204-.132.355.336.952.676 1.922 1.005 2.859l.056.166.54 1.548.329.948.072-.204a.521.521 0 01.034-.087c.015-.042.026-.068.034-.098l.215-.861c.211-.85.43-1.73.634-2.598.076-.317.212-.574.423-.797 1.095-1.152 2.202-2.33 3.274-3.466.336-.36.676-.718 1.012-1.077.117-.124.238-.253.355-.38l.287-.31h-.178z" fill="#000"/></g></g><defs><clipPath id="clip0_3901_36278"><path fill="#fff" d="M0 0h24v24H0z"/></clipPath><clipPath id="clip1_3901_36278"><path fill="#fff" transform="translate(-.006 1.824)" d="M0 0h24.012v20.304H0z"/></clipPath></defs></svg>