<svg width="21" height="19" fill="none" xmlns="http://www.w3.org/2000/svg"><g clip-path="url(#clip0_3885_25429)" fill="#000"><path d="M1.975 14.25c.357-.742.69-1.43 1.021-2.12-.279-.23-.566-.442-.832-.684C1.054 10.436.307 9.203.069 7.672a5.713 5.713 0 01.607-3.605C1.615 2.264 3.111 1.14 4.956.504c2.053-.704 4.111-.674 6.14.11 1.796.696 3.222 1.862 4.079 3.678.176.377.295.784.459 1.225-.222-.017-.39-.034-.553-.042-2.53-.144-4.797.538-6.641 2.383-1.365 1.362-2.025 3.037-1.832 5.026.02.195.061.386.098.628-.336-.068-.648-.128-.955-.2-.185-.042-.377-.085-.55-.165-.278-.127-.52-.102-.795.03-.725.343-1.463.657-2.197.98-.057.025-.115.046-.234.093zm3.276-9.153c.533 0 .975-.462.98-1.013 0-.552-.44-1.014-.976-1.018-.541-.004-.992.466-.988 1.026.004.552.45 1.01.984 1.005zm5.238-2.031c-.532.004-.975.462-.975 1.014 0 .55.443 1.013.975 1.013.541.004.992-.466.988-1.026-.004-.547-.455-1.001-.988-1.001z"/><path d="M18.458 16.482l1.214 2.51c-.115-.046-.18-.068-.246-.097-1.009-.445-2.021-.89-3.026-1.345a.851.851 0 00-.549-.063c-1.742.36-3.41.11-4.989-.721-1.176-.624-2.106-1.514-2.631-2.795-.554-1.349-.476-2.68.213-3.953.787-1.45 2.03-2.328 3.525-2.824 1.849-.611 3.69-.547 5.489.216 1.25.53 2.292 1.353 2.956 2.596.741 1.395.79 2.82.077 4.253-.41.823-1.004 1.472-1.733 1.998-.095.076-.19.144-.3.225zm-5.013-5.607c.004-.551-.435-1.018-.968-1.026-.532-.009-.983.44-.996.996-.012.56.435 1.035.976 1.035.537.004.984-.45.988-1.005zm2.943 1.005c.533.004.984-.45.992-1 .008-.552-.426-1.019-.963-1.031-.541-.013-.996.45-1 1.013 0 .552.438 1.014.971 1.018z"/></g><defs><clipPath id="clip0_3885_25429"><path fill="#fff" d="M0 0h21v19H0z"/></clipPath></defs></svg>