<svg width="30" height="30" fill="none" xmlns="http://www.w3.org/2000/svg"><g clip-path="url(#clip0_3901_36338)"><g clip-path="url(#clip1_3901_36338)" fill="#000"><path d="M14.989 30a.772.772 0 01-.756-.75c-.006-.272-.006-.55-.006-.815v-.809l-.107-.012c-3.165-.266-5.876-1.5-8.055-3.679-2.179-2.18-3.419-4.89-3.685-8.055l-.011-.106H.863c-.272 0-.514-.089-.668-.248a.703.703 0 01-.2-.532c.005-.449.354-.756.868-.756h1.506l.011-.106c.26-3.165 1.5-5.876 3.68-8.055 2.179-2.18 4.89-3.42 8.055-3.685l.106-.012V.874C14.233.348 14.54 0 15 0h.011c.449.006.756.354.756.868 0 .225 0 .449.006.673 0 .219 0 .437.006.656a.19.19 0 00.024.088c.005.006.005.018.011.03l.03.065.07.006c3.137.254 5.835 1.494 8.02 3.679 2.18 2.18 3.42 4.89 3.686 8.055l.011.106h1.506c.278 0 .514.089.667.248a.703.703 0 01.201.532c-.006.449-.354.756-.868.756h-1.506l-.012.106c-.26 3.165-1.5 5.876-3.679 8.055-2.185 2.185-4.895 3.425-8.055 3.68l-.106.005v.579c0 .36.006.697-.006 1.04a.766.766 0 01-.762.755L14.99 30zm9.124-14.132c-.42 2.339-1.323 4.217-2.681 5.575-1.359 1.358-3.225 2.256-5.552 2.663l-.1.018v1.925l.124-.006c5.84-.378 9.945-5.557 10.116-10.151l.006-.124H24.13l-.017.1zm-20.15.047c.33 5.35 4.878 9.886 10.134 10.11l.124.007V24.13l-.095-.018c-2.332-.42-4.204-1.317-5.563-2.675-1.358-1.358-2.256-3.224-2.663-5.551l-.018-.1H3.957l.006.13zm11.043 4.282a.773.773 0 01.762.75c.006.106.006.218.006.325v1.234l.13-.012c3.384-.378 6.218-3.2 6.59-6.567l.012-.1-.094-.03c-.012-.006-.024-.006-.03-.012-.023-.005-.047-.017-.077-.017h-1.21c-.537 0-.886-.302-.886-.762 0-.207.07-.39.2-.526.16-.16.396-.248.674-.248h1.429l-.012-.13c-.348-3.372-3.23-6.265-6.56-6.584l-.083-.006-.036.07c-.006.012-.023.036-.023.077 0 .154 0 .302-.006.455 0 .307-.006.62-.012.927a.768.768 0 01-.697.756c-.024 0-.047.006-.07.006a.765.765 0 01-.75-.626c-.018-.094-.018-.195-.018-.301V7.488l-.13.018c-3.85.437-6.367 3.697-6.573 6.596l-.012.124h1.394c.537 0 .885.302.885.762 0 .207-.07.39-.2.526-.16.16-.396.248-.674.248H7.512l.012.13c.354 3.425 3.189 6.254 6.59 6.584l.13.012v-.567c0-.319-.005-.65.006-.974a.768.768 0 01.768-.756l-.012.006zm.786-14.262l.106.012c2.173.248 4.034 1.134 5.534 2.634s2.385 3.366 2.633 5.54l.012.105h1.978l-.005-.124c-.396-5.87-5.558-9.968-10.14-10.122l-.124-.006v1.961h.006zM14.09 3.963c-5.35.33-9.886 4.872-10.116 10.128l-.006.124H5.87l.018-.095c.414-2.333 1.317-4.199 2.675-5.557 1.359-1.358 3.23-2.256 5.557-2.663l.1-.018V3.95l-.13.012z"/><path d="M14.982 18.13c-1.724-.006-3.118-1.423-3.112-3.148A3.132 3.132 0 0115 11.87h.018c1.724.006 3.118 1.423 3.112 3.148A3.132 3.132 0 0115 18.13h-.018zM15 13.406c-.868 0-1.583.702-1.594 1.57a1.593 1.593 0 001.588 1.613 1.6 1.6 0 001.6-1.571A1.593 1.593 0 0015 13.406z"/></g></g><defs><clipPath id="clip0_3901_36338"><path fill="#fff" d="M0 0h30v30H0z"/></clipPath><clipPath id="clip1_3901_36338"><path fill="#fff" d="M0 0h30v30H0z"/></clipPath></defs></svg>