<svg width="24" height="24" fill="none" xmlns="http://www.w3.org/2000/svg"><g clip-path="url(#clip0_3904_1808)" fill="#2F2A2A" stroke="#2F2A2A" stroke-width=".1"><path d="M21.208 14.071c.666 1.214.96 2.53 1.097 3.89.07.711.098 1.433.089 2.15-.028 2.062-1.5 3.64-3.561 3.837m2.375-9.877l.044-.024c.67 1.222.966 2.546 1.102 3.908h0c.07.715.099 1.438.09 2.157-.029 2.087-1.52 3.687-3.607 3.886m2.371-9.927c-.74-1.35-1.832-2.202-3.378-2.432L3.978 23.272m17.23-9.2l.044-.025c-.747-1.362-1.851-2.225-3.415-2.457h0c-.588-.086-1.138-.044-1.64.332-.196.148-.406.276-.617.406a25.09 25.09 0 00-.204.126c-.994.612-1.985.918-2.975.92-.99 0-1.98-.303-2.975-.915h0a14.306 14.306 0 01-.52-.337 7.711 7.711 0 00-.531-.325h0c-.221-.117-.483-.24-.74-.245h0a4.447 4.447 0 00-2.204.535h0c-1.096.588-1.763 1.546-2.21 2.65h0c-.758 1.877-.993 3.849-.815 5.856.1 1.122.652 2.025 1.572 2.68m14.86.725s0 0 0 0l-.006-.05m.005.05l-.005-.05m.005.05c-.287.028-.58.043-.867.043 0 0 0 0 0 0v-.05c.286 0 .577-.014.863-.043m-14.826-.716c-.909-.647-1.453-1.537-1.551-2.643-.178-2 .056-3.964.81-5.834.446-1.096 1.106-2.043 2.189-2.624l-1.448 11.1zm0 0l-.029.04m.029-.04l-.029.04s0 0 0 0m14.801-.779h0c1.15-.133 1.989-.932 2.126-2.065.112-.935.028-1.876-.107-2.807h0c-.14-.972-.369-1.922-.838-2.79h0c-.552-1.025-1.349-1.686-2.545-1.755a.613.613 0 00-.3.069c-.206.12-.402.248-.6.377-.147.096-.295.192-.449.287h0c-.971.599-2.024.967-3.166 1.057m5.88 7.627l-5.884-7.677m5.883 7.677a5.84 5.84 0 01-.762.047H6.678c-.614 0-1.198-.093-1.721-.424h0c-.72-.454-1.074-1.136-1.092-1.96h0c-.042-1.641.094-3.264.727-4.8h0c.317-.774.747-1.474 1.497-1.907m12.69 9.044L4.546 15.336c.318-.778.754-1.49 1.518-1.93m6.836 1.46l-.004-.05m.004.05s0 0 0 0l-.004-.05m.004.05c-1.56.123-2.985-.307-4.295-1.137h0l-.31-.198c-.204-.132-.408-.264-.617-.392h0a.47.47 0 00-.231-.072m5.449 1.75c-1.547.12-2.962-.306-4.264-1.13a63.715 63.715 0 01-.308-.198c-.206-.132-.41-.264-.62-.393a.519.519 0 00-.258-.08m.001.05s0 0 0 0v-.05m0 .05s0 0 0 0v-.05m0 .05a2.872 2.872 0 00-1.358.383m1.357-.432a2.924 2.924 0 00-1.382.389m0 0l.025.043s0 0 0 0m-.025-.043l.025.043s0 0 0 0"/><path d="M6.413 5.692h0C6.365 8.854 8.94 11.6 12.22 11.62c3.147.019 5.86-2.556 5.86-5.799.047-3.186-2.585-5.809-5.713-5.87h0c-3.21-.057-5.899 2.561-5.955 5.742zm5.832-4.227a4.307 4.307 0 014.33 4.317 4.31 4.31 0 01-4.32 4.327A4.311 4.311 0 017.931 5.8a4.304 4.304 0 014.313-4.336z"/></g><defs><clipPath id="clip0_3904_1808"><path fill="#fff" transform="translate(2.4)" d="M0 0h19.998v24H0z"/></clipPath></defs></svg>